<?xml version="1.0" encoding="UTF-8" standalone="no"?>
<!-- Created with Inkscape (http://www.inkscape.org/) -->

<svg
   version="1.1"
   id="svg2"
   width="1000"
   height="666.66669"
   viewBox="0 0 1000 666.66669"
   sodipodi:docname="7926517.eps"
   xmlns:inkscape="http://www.inkscape.org/namespaces/inkscape"
   xmlns:sodipodi="http://sodipodi.sourceforge.net/DTD/sodipodi-0.dtd"
   xmlns="http://www.w3.org/2000/svg"
   xmlns:svg="http://www.w3.org/2000/svg">
  <defs
     id="defs6" />
  <sodipodi:namedview
     id="namedview4"
     pagecolor="#ffffff"
     bordercolor="#000000"
     borderopacity="0.25"
     inkscape:showpageshadow="2"
     inkscape:pageopacity="0.0"
     inkscape:pagecheckerboard="0"
     inkscape:deskcolor="#d1d1d1" />
  <g
     id="g8"
     inkscape:groupmode="layer"
     inkscape:label="ink_ext_XXXXXX"
     transform="matrix(1.3333333,0,0,-1.3333333,0,666.66667)">
    <g
       id="g10"
       transform="scale(0.1)">
      <path
         d="M 0,0 H 7500 V 5000 H 0 Z"
         style="fill:#435c37;fill-opacity:1;fill-rule:nonzero;stroke:none"
         id="path12" />
      <path
         d="M 0,0 H 7500 V 5000 H 0 Z"
         style="fill:#435c37;fill-opacity:1;fill-rule:nonzero;stroke:none"
         id="path14" />
      <path
         d="m 1486.41,1866.29 c 87.07,699.6 -675.281,1583.41 613.44,2039.02 473.03,167.23 939.44,223.19 1242.26,854.95 287.13,599.01 -33.98,903.06 -680.61,1055.46 -989.12,233.13 -1990.406,427.12 -3003.965,500.55 -257.875,18.68 -567.586,4.26 -703.325,-215.79 -116.46,-188.79 -80.66,-145.66 151.626,-3952.98 19.086,-312.86 -20.824,-773.74 214.586,-1022.79 276.808,-292.839 882.211,-283.421 1236.391,-194.69 400.503,100.33 929.597,468.56 929.597,936.27"
         style="fill:#344329;fill-opacity:1;fill-rule:nonzero;stroke:none"
         id="path16" />
      <path
         d="m 2824.19,5934.88 c -22.02,-353.54 -46.15,-715.93 -191.02,-1039.16 -144.88,-323.24 -438.52,-604.14 -791.82,-629.64 -32.87,-2.38 -68.27,-1.74 -105.62,-1.11 -195.51,3.32 -444.43,6.64 -663.34,-421.29 C 978.281,3659.73 916.883,3457.58 795.988,3290.01 528.777,2919.64 -32.0039,2801.1 -426.238,3031.65 l -57.645,2982.23 3308.073,-79"
         style="fill:#4b693d;fill-opacity:1;fill-rule:nonzero;stroke:none"
         id="path18" />
      <path
         d="m 5478.67,3463.46 c 546.61,-1158.36 1990.81,-1464.98 2357.4,-1122.91 133.28,124.36 162.57,321.8 177.86,503.44 41.56,493.68 36.99,991.18 -12.79,1484.08 -39.05,386.77 -48.37,1054.31 -274.21,1383.93 -399.76,583.48 -3115.04,-411.67 -2248.26,-2248.54"
         style="fill:#344329;fill-opacity:1;fill-rule:nonzero;stroke:none"
         id="path20" />
      <path
         d="m 359.984,4237.92 c -703.3,421.04 -1112.945,-581.68 -482.129,-911.87 657.25,-344.03 1165.945,502.48 482.129,911.87"
         style="fill:#344329;fill-opacity:1;fill-rule:nonzero;stroke:none"
         id="path22" />
      <path
         d="m 7812.27,2161.94 c -56.3,336.58 -393.55,607.48 -727.8,618.27 -283.28,9.14 -678.12,-284.06 -339.91,-782.4 474.09,-698.57 1136.39,-246.5 1067.71,164.13"
         style="fill:#4b693d;fill-opacity:1;fill-rule:nonzero;stroke:none"
         id="path24" />
      <path
         d="m 4208.37,1121.09 c -862.25,14.27 -1711.91,-499.149 -2100.29,-1269.121 44.68,-69.028 145.62,-62.899 226.94,-50.668 640.34,96.32 1385.4,67.211 2040.55,38.109 889.14,-39.5 1612.71,-79 1684.2,195.0002 C 6130.12,304.02 5211.55,1104.49 4208.37,1121.09"
         style="fill:#5e854b;fill-opacity:1;fill-rule:nonzero;stroke:none"
         id="path26" />
      <path
         d="m 4330.9,427.621 c -862.25,14.27 -1711.92,-499.1523 -2100.29,-1269.109 44.67,-69.043 145.62,-62.903 226.94,-50.672 1509.37,227.019 3600.57,-242.8 3724.75,233.109 70.35,269.602 -848.22,1070.082 -1851.4,1086.672"
         style="fill:#435c37;fill-opacity:1;fill-rule:nonzero;stroke:none"
         id="path28" />
      <path
         d="M 4848.38,-326.598 C 4792.09,9.98047 4454.83,280.879 4120.59,291.66 3837.3,300.801 3442.46,7.60938 3780.67,-490.73 c 474.1,-698.57 1136.4,-246.508 1067.71,164.132"
         style="fill:#5e854b;fill-opacity:1;fill-rule:nonzero;stroke:none"
         id="path30" />
      <path
         d="m 271.348,3862.86 c -38.629,230.97 -270.07066,416.88 -499.45,424.28 -194.402,6.27 -465.363,-194.93 -233.265,-536.92 325.347,-479.39 779.847,-169.16 732.715,112.64"
         style="fill:#435c37;fill-opacity:1;fill-rule:nonzero;stroke:none"
         id="path32" />
      <path
         d="m 6524.53,0 h -123.62 c -90.15,25.6406 -147.88,70.0898 -173,70.0898 -15.96,0 -18.75,-17.9414 -8.31,-70.0898 h -49.13 c -1.62,16.332 -3.06,32.6914 -4.31,49.0508 C 6149.83,30.2813 6131.03,13.8594 6110.48,0 h -63.91 c 5.64,10.8789 10.05,22.3398 13.2,34.4102 1.24,4.7382 2.17,9.6406 2.8,14.6992 28.1,8.5625 56.62,15.7812 85.41,21.5898 -27.95,20.3906 -58.86,34.5118 -91.58,44.7808 -4.05,15.149 -9.81,31.122 -17.17,47.711 30.97,-15.851 60.72,-34.07 88.88,-54.55 -22.06,67.871 -71.74,107.371 -133.53,134.66 -31.81,48.25 -74.05,100.058 -125.32,153.41 101.34,-32.582 193.92,-87.91 250.95,-186.441 -38.54,75.601 -39.89,178.96 -114.58,217.5 -29.76,15.351 -103.91,12.57 -186.42,18.769 -42.22,40.301 -89.27,81.18 -140.55,121.82 148.98,-25.179 313.8,-22.168 400.38,-145.668 -37.25,61.309 -17.43,154.09 -73.08,200.258 -26.71,22.16 -61.82,25.68 -97.53,25.68 -15.87,0 -31.85,-0.688 -47.27,-0.758 -0.53,0 -1.09,0 -1.62,0 -198.71,-0.012 -387.84,149.188 -433.89,342.539 417.74,-258.75 397.55,-169.762 534.5,-242.93 44.69,-23.878 83.76,-65.859 87.52,-116.39 -3.99,71 -13.61,152.41 -72.59,192.14 -58.13,39.161 -375.3,26.61 -515.22,347.41 135.3,-173.8 462.37,-116.59 554.47,-325.308 -16.74,45.449 -5.73,99.996 -30.11,142.227 -30.15,52.221 -98.77,63.091 -156.58,80.231 -163.64,48.51 -293.69,195.62 -321.78,363.98 136.69,-197.8 313.98,-223.78 417.1,-288.55 -124.33,129.58 -317.1,218.99 -326.65,404.67 205.74,-79.38 372.86,-253.12 444.21,-461.78 -96.45,422.25 -190.16,391.01 -63.51,773.8 106.34,-204.18 216.65,-378.93 177.84,-548.87 -20.1,-88.03 -80.05,-171.53 -62.81,-260.16 105.66,63.63 64.26,386.43 422.24,530.42 -6.72,-379.02 -328.68,-490.44 -393.57,-560.74 -38.73,-41.958 -59.01,-108.818 -27.51,-156.451 -18.06,164.511 405.13,229.021 570.13,243.551 C 6508.54,907.199 6329.13,943.461 6199.54,876.801 6127.16,839.559 6068.62,753.449 6100.21,678.43 6159.83,886.25 6464.2,860.422 6617.4,936.051 6530.25,795.23 6351.89,749.02 6195.23,695.34 c -64.61,-22.141 -54.13,-28.36 -54.72,-212.649 5.72,112.348 299.03,259.118 411.66,313.469 -20.1,-155.48 -174.99,-252.031 -315.07,-322.449 -64.46,-32.402 -101.18,-70.441 -56.08,-210.109 80.99,206.367 367.69,239.89 508.4,411.199 -113.34,-389.031 -474.65,-323.41 -494.49,-530.379 106.69,144.637 299.45,158.41 462.22,160.848 -0.72,-4.34 -1.41,-8.711 -2.05,-13.051 C 6522.55,239.129 6389.99,186.039 6257.44,132.961 6359.43,126.77 6457.9,77.3203 6524.53,0 m 163.02,305.219 c 0.03,0.14 0.05,0.261 0.07,0.402 0.32,0.008 0.65,0.008 0.97,0.008 -0.34,-0.129 -0.69,-0.27 -1.04,-0.41"
         style="fill:#537344;fill-opacity:1;fill-rule:nonzero;stroke:none"
         id="path34" />
      <path
         d="m 6046.57,0 h -110.82 c 40.99,19.4609 83.42,35.8984 126.82,49.1094 -0.63,-5.0586 -1.56,-9.961 -2.8,-14.6992 C 6056.62,22.3398 6052.21,10.8789 6046.57,0 m 9.83,115.48 c -143.93,45.18 -322.64,15.692 -436.45,116.79 33.5,5.121 67.36,7.628 101.23,7.628 110.03,0 220.11,-26.558 318.05,-76.707 7.36,-16.589 13.12,-32.562 17.17,-47.711 m -61.82,127.821 c -146.47,64.699 -361.07,60.847 -437.6,204.078 93.78,-7.637 207.7,-17.039 312.28,-50.668 51.27,-53.352 93.51,-105.16 125.32,-153.41 m -175.37,203.238 c -122.22,9.18 -262.78,38.07 -304.66,174.852 48.27,-28.582 104.94,-43.032 164.11,-53.032 51.28,-40.64 98.33,-81.519 140.55,-121.82"
         style="fill:#60884d;fill-opacity:1;fill-rule:nonzero;stroke:none"
         id="path36" />
      <path
         d="m 1525.77,4455.64 c -171.18,0 -363.81,11 -401.79,55.55 -31.16,36.56 -48.13,298.09 -56.29,488.81 h 934.59 c 24.26,-38.31 29.56,-72.82 29.5,-141.95 -0.09,-95.61 29.51,-262.91 -5.73,-351.2 -15.47,-38.73 -55.86,-47.16 -102.61,-47.16 -18.02,0 -36.97,1.25 -55.8,2.5 -18.84,1.25 -37.55,2.5 -55.08,2.5 -7.33,0 -14.45,-0.22 -21.28,-0.75 -40.07,-3.09 -147.72,-8.3 -265.51,-8.3"
         style="fill:#668f50;fill-opacity:1;fill-rule:nonzero;stroke:none"
         id="path38" />
      <path
         d="m 4499.42,4363.65 c -27.02,0 -54.25,8.79 -78.65,28.4 -91.78,73.83 -54.98,296.38 -194.58,304.63 -1.66,0.09 -3.33,0.14 -5.01,0.14 -64.37,0 -143.93,-70.49 -215.62,-108.76 -44.89,-23.96 -84.4,-33.74 -117.89,-33.74 -104.92,0 -150.82,95.9 -118.23,152.14 40.99,70.73 213.08,68.97 190.75,169.42 -13.2,59.36 -97.55,58.21 -150.55,88.03 -17.55,9.88 -30.87,22.25 -40.43,36.09 h 989.32 c -15.46,-24.52 -43.77,-43.19 -87.84,-49.86 -63.71,-9.64 -124.07,5.47 -149.68,-71.78 -30.38,-91.63 65.76,-167.69 104.52,-239.74 78.07,-145.16 -22.34,-274.97 -126.11,-274.97"
         style="fill:#658c50;fill-opacity:1;fill-rule:nonzero;stroke:none"
         id="path40" />
      <path
         d="m 7522.39,4142.98 -6.05,-4.43 c 37.57,-51.34 73.16,-84.88 115.45,-111.21 42.3,-26.34 90.95,-45.49 155.12,-69.05 3.04,-1.12 6.43,-0.17 8.45,2.36 2.02,2.54 2.19,6.05 0.43,8.76 -17.48,26.97 -25.6,51.77 -30,78.26 -6.61,39.67 -4.33,83.36 -11.59,140.24 -7.28,56.88 -24.3,126.72 -69.5,218.92 -11.65,23.76 -61.28,117.89 -115.1,206.49 -26.91,44.29 -54.81,87.14 -79.66,119.19 -12.44,16.04 -24.09,29.37 -34.73,38.97 -5.33,4.81 -10.4,8.69 -15.4,11.52 -5,2.79 -9.99,4.64 -15.32,4.68 -1.62,0 -3.27,-0.19 -4.88,-0.61 v 0 c -4.47,-1.15 -8.25,-3.76 -11.54,-7.08 -5.73,-5.87 -10.37,-14.19 -14.61,-24.83 -12.55,-31.82 -20.9,-85.25 -20.94,-151.26 0.04,-132.74 34.36,-315.78 143.82,-465.35 l 6.05,4.43 6.05,4.43 c -106.93,145.91 -140.96,326.23 -140.92,456.49 -0.01,49.26 4.87,91.35 12.3,121.37 3.7,15 8.08,26.97 12.53,35.08 2.21,4.06 4.44,7.12 6.4,9.11 1.98,2 3.59,2.84 4.59,3.08 v 0.01 l 1.15,0.13 c 1.52,0.03 4.34,-0.69 7.95,-2.75 6.82,-3.8 16.01,-11.91 26.18,-23.18 35.85,-39.52 84.65,-116.9 126.42,-188.82 41.81,-71.93 76.92,-138.77 86.19,-157.7 59.34,-121.24 68.85,-201.35 72.76,-266.04 1.94,-32.36 2.39,-60.98 7,-88.97 4.6,-27.97 13.54,-55.26 32.22,-83.97 l 6.29,4.08 2.58,7.04 c -64.05,23.5 -111.75,42.38 -152.35,67.7 -40.61,25.33 -74.47,57.09 -111.29,107.34 l -6.05,-4.43"
         style="fill:#75a65d;fill-opacity:1;fill-rule:nonzero;stroke:none"
         id="path42" />
      <path
         d="m 6993.43,3531.13 4.62,-5.91 c 91.19,71.33 195.69,215.61 248.6,311.63 102.73,186.81 130.79,398.65 130.81,567.11 -0.01,86.28 -7.38,161.2 -15.97,215.67 -4.3,27.25 -8.89,49.37 -13.06,65.35 -2.1,8 -4.07,14.45 -5.92,19.38 -0.93,2.47 -1.83,4.55 -2.78,6.37 -1.01,1.82 -1.82,3.35 -3.85,5.13 -4.69,3.93 -10.35,6.07 -15.91,6.03 -4.5,0 -8.76,-1.27 -12.64,-3.23 -6.8,-3.45 -12.75,-8.91 -18.39,-15.27 -8.43,-9.55 -16.09,-21.31 -22.73,-32.13 -6.6,-10.77 -12.24,-20.72 -15.86,-25.89 -117.23,-168.28 -187.91,-302.59 -229.31,-415.99 -41.41,-113.38 -53.43,-205.88 -53.42,-289.83 0.05,-114.61 22.13,-212.91 22.08,-327.92 0,-25.62 -1.08,-52.09 -3.73,-79.78 -0.29,-2.98 1.24,-5.86 3.86,-7.29 2.62,-1.44 5.86,-1.18 8.22,0.66 l -4.62,5.91 7.47,-0.71 c 2.7,28.21 3.8,55.16 3.8,81.21 -0.04,117.03 -22.13,215.37 -22.08,327.92 0.01,82.51 11.71,172.87 52.51,284.69 40.81,111.8 110.81,245.02 227.53,412.55 3.35,4.82 7.29,11.59 11.88,19.26 6.85,11.47 15.1,24.83 23.54,34.95 4.2,5.06 8.45,9.28 12.31,12.02 3.89,2.77 7.18,3.9 9.58,3.87 2,-0.03 3.8,-0.54 6.34,-2.59 l 2.22,2.68 -2.62,-2.29 0.4,-0.39 2.22,2.68 -2.62,-2.29 0.03,0.02 -0.04,-0.02 h 0.01 l 0.03,0.02 -0.04,-0.02 c 0.44,-0.52 2.05,-3.81 3.63,-8.59 5.82,-17.02 14.17,-54.12 20.91,-104.7 6.76,-50.65 12.02,-115.01 12.02,-187.44 0.02,-166.83 -27.94,-376.33 -128.95,-559.88 -51.79,-94.32 -156.48,-238.31 -244.69,-307.04 l 4.61,-5.91 7.47,-0.71 -7.47,0.71"
         style="fill:#75a65d;fill-opacity:1;fill-rule:nonzero;stroke:none"
         id="path44" />
      <path
         d="m 6581.08,4166.71 -5.3,5.31 c -96.95,-96.68 -161.24,-167.57 -217.12,-252.21 -55.88,-84.64 -103.14,-182.68 -166.51,-333.67 -27.57,-65.69 -84.67,-209.48 -134.95,-364.58 -50.26,-155.19 -93.79,-321.27 -93.87,-433.12 0.06,-40.9 5.72,-74.76 20.19,-98.83 1.6,-2.63 4.63,-4.02 7.67,-3.51 3.03,0.51 5.44,2.82 6.08,5.83 9.01,42.23 26.72,78.93 51.63,113.69 43.56,60.8 109.46,115.4 187.83,180.56 117.52,97.77 262.77,219.46 401.21,423.64 138.46,204.2 270.11,490.81 361.44,918.49 2.18,10.24 7.19,28.54 11.65,49.23 4.45,20.73 8.39,43.96 8.41,65.02 -0.02,13.01 -1.48,25.25 -5.7,35.78 -4.15,10.48 -11.64,19.46 -22.75,23.75 -2.8,1.09 -5.73,1.52 -8.7,1.52 -5.56,-0.02 -11.37,-1.43 -17.77,-3.75 -23.76,-8.78 -56.75,-31.27 -94.7,-60.85 -113.45,-88.65 -267.94,-240.97 -294.04,-266.99 l 5.3,-5.31 5.29,-5.31 c 18.39,18.34 101.82,100.64 188.91,178.22 43.54,38.78 88.01,76.4 125.58,104.17 18.77,13.88 35.83,25.3 50.01,33.11 7.08,3.9 13.43,6.91 18.81,8.87 5.36,1.98 9.76,2.86 12.61,2.84 1.53,0 2.58,-0.23 3.22,-0.48 6.73,-2.7 11.08,-7.57 14.32,-15.4 3.16,-7.78 4.62,-18.33 4.61,-30.17 0.01,-19.19 -3.72,-41.65 -8.08,-61.87 -4.36,-20.27 -9.28,-38.19 -11.65,-49.25 -138.76,-649.42 -369.85,-970.01 -575.48,-1172.3 -102.87,-101.16 -199.52,-172.7 -275.64,-241.07 -38.06,-34.2 -71,-67.63 -96.88,-103.71 -25.88,-36.06 -44.65,-74.85 -54.11,-119.3 l 7.34,-1.56 6.41,3.88 c -12.18,19.97 -18.07,51.57 -18.02,91.06 -0.07,108.25 43.02,274.07 93.14,428.5 50.08,154.51 107.09,298.07 134.51,363.39 63.25,150.72 110.14,247.83 165.19,331.21 55.05,83.38 118.45,153.37 215.2,249.86 l -5.29,5.31"
         style="fill:#75a65d;fill-opacity:1;fill-rule:nonzero;stroke:none"
         id="path46" />
      <path
         d="m 5728.22,4029.07 -3.57,6.59 c -114.27,-61.94 -221.73,-130.62 -308.41,-216.39 -86.67,-85.74 -152.49,-188.75 -182.89,-318.57 -0.84,-3.55 0.99,-7.16 4.33,-8.6 3.35,-1.44 7.23,-0.28 9.23,2.77 64.26,97.48 133.79,152.55 213.03,191.17 118.79,57.93 260.32,78.02 434.85,144.32 174.51,66.33 381.57,179.16 631.61,422.72 1.35,1.35 2.38,2.72 3.88,4.74 5.04,6.87 13.46,19.9 20.85,33.08 3.69,6.59 7.09,13.17 9.65,19.1 1.29,2.96 2.36,5.77 3.16,8.41 0.79,2.67 1.35,5.13 1.37,7.87 -0.03,2.05 -0.28,4.58 -2.2,7.21 -0.95,1.28 -2.35,2.41 -3.85,3.06 -1.51,0.66 -3.02,0.88 -4.34,0.88 l -0.48,-0.01 0.04,0.01 c -338.31,-12.2 -587.63,-170.56 -829.83,-301.77 l 3.57,-6.59 3.57,-6.6 c 242.94,131.72 489.56,287.99 823.23,299.96 h 0.03 l -0.13,3.32 v -3.32 h 0.13 l -0.13,3.32 v -3.32 4.31 l -1.73,-3.91 1.73,-0.4 v 4.31 l -1.73,-3.91 2.05,4.63 -4.64,-2.1 c 0.3,-0.79 1.39,-2.06 2.59,-2.53 l 2.05,4.63 -4.64,-2.1 3.14,1.42 -3.41,-0.59 0.27,-0.83 3.14,1.42 -3.41,-0.59 1.39,0.24 -1.41,-0.11 0.02,-0.13 1.39,0.24 -1.41,-0.11 v -0.04 c 0.03,-0.35 -0.24,-2.12 -0.99,-4.37 -2.6,-8.11 -10.16,-22.27 -17.51,-34.37 -3.67,-6.08 -7.31,-11.74 -10.27,-16.08 -1.47,-2.17 -2.78,-4.01 -3.81,-5.38 l -1.28,-1.65 -0.4,-0.47 -0.1,-0.12 -0.01,-0.01 c -331.81,-323.03 -585.15,-413.5 -789.26,-473.08 -102.07,-29.78 -192.04,-51.69 -273.31,-91.22 -81.26,-39.5 -153.51,-96.89 -218.99,-196.41 l 6.27,-4.13 7.3,-1.71 c 29.74,126.81 93.74,227.08 178.84,311.33 85.09,84.23 191.34,152.27 305,213.86 l -3.57,6.6"
         style="fill:#75a65d;fill-opacity:1;fill-rule:nonzero;stroke:none"
         id="path48" />
      <path
         d="m 6859,4710.89 -0.33,7.5 c -50.48,-2.25 -93.69,-3.59 -132.13,-3.59 -81.45,0.01 -141.36,5.96 -204.34,21.8 -62.97,15.85 -129.23,41.72 -222.7,81.76 -270.95,116.12 -388.11,220.52 -476.22,315.07 -44.06,47.31 -80.91,92.39 -125.98,135.27 -45.06,42.86 -98.33,83.35 -174.78,121.18 l -3.32,-6.73 -0.14,-7.5 c 313.11,-5.53 547.13,-46.82 744.88,-116.78 197.74,-69.97 359.39,-168.67 527.72,-289.58 75.14,-53.97 138.34,-97.61 182.45,-132.48 22.05,-17.41 39.31,-32.66 50.75,-45.61 5.72,-6.47 9.98,-12.34 12.68,-17.45 2.72,-5.12 3.84,-9.36 3.83,-12.71 -0.02,-2.48 -0.54,-4.55 -1.72,-6.7 -2.04,-3.73 -6.6,-7.94 -14.79,-11.92 -12.21,-5.99 -31.97,-11.19 -59.5,-15.17 -27.54,-4.01 -62.89,-6.91 -106.69,-8.86 l 0.33,-7.5 0.34,-7.49 c 67.23,3.02 114.98,8.17 146.75,16.54 15.89,4.22 27.87,9.19 36.51,15.76 4.3,3.28 7.77,7.05 10.16,11.36 2.4,4.3 3.62,9.12 3.61,13.98 -0.01,6.62 -2.1,13.17 -5.58,19.74 -6.14,11.5 -16.64,23.47 -30.95,36.9 -42.91,40.11 -120.93,93.01 -219.42,163.78 -168.85,121.3 -331.94,220.95 -531.48,291.55 -199.54,70.61 -435.35,112.1 -749.61,117.64 -3.51,0.06 -6.59,-2.31 -7.42,-5.72 -0.83,-3.41 0.81,-6.94 3.96,-8.5 75.12,-37.19 126.88,-76.57 171.1,-118.6 66.29,-62.99 115.69,-132.52 199.75,-208.34 84.06,-75.8 202.56,-157.42 406.87,-244.92 93.65,-40.11 160.61,-66.32 224.95,-82.52 64.35,-16.2 125.87,-22.26 208,-22.25 38.79,0 82.2,1.34 132.8,3.6 l -0.34,7.49"
         style="fill:#75a65d;fill-opacity:1;fill-rule:nonzero;stroke:none"
         id="path50" />
      <path
         d="m 6424.78,4386.71 -2.14,7.18 c -259.36,-77.23 -477.3,-109.07 -668,-109.08 -419.73,0.04 -708.11,154.14 -1016.8,321.17 l -3.57,-6.6 2.99,-6.88 c 14.01,6.07 25.26,8.23 36.58,8.25 18.39,0.07 37.78,-6.2 66.67,-12.86 28.87,-6.61 66.95,-13.25 122.88,-13.24 53.65,0 123.78,6.06 218.49,23.9 212.39,39.99 624.14,105.59 960.4,105.57 163.28,0.05 308.83,-15.6 404.11,-56.34 19.22,-8.18 50.45,-25.64 76.26,-47.31 12.93,-10.83 24.51,-22.71 32.67,-34.8 8.19,-12.1 12.85,-24.24 12.83,-35.73 -0.03,-9.55 -3.02,-18.94 -10.71,-28.78 -22.5,-28.8 -63.35,-50.77 -107.59,-67.65 -44.22,-16.94 -91.57,-29.01 -127.21,-39.62 l 2.14,-7.18 2.14,-7.19 c 35.19,10.48 83,22.64 128.3,39.98 45.28,17.42 88.3,39.81 114.02,72.39 9.52,12.06 13.95,25.16 13.91,38.05 -0.02,15.58 -6.15,30.44 -15.4,44.13 -13.94,20.56 -35.09,38.95 -56.59,54.06 -21.51,15.09 -43.33,26.8 -58.89,33.44 -98.96,42.16 -245.7,57.5 -409.99,57.55 -338.11,-0.02 -750.22,-65.76 -963.17,-105.83 -94.01,-17.7 -163.21,-23.64 -215.72,-23.64 -54.78,0.01 -91.36,6.42 -119.54,12.86 -28.15,6.39 -48.18,13.17 -70.01,13.24 -13.34,0.02 -27.05,-2.73 -42.56,-9.49 -2.63,-1.14 -4.38,-3.69 -4.5,-6.56 -0.12,-2.86 1.4,-5.55 3.92,-6.91 308.51,-166.97 600.3,-323.01 1023.94,-322.98 192.38,0 411.81,32.14 672.28,109.71 l -2.14,7.19"
         style="fill:#75a65d;fill-opacity:1;fill-rule:nonzero;stroke:none"
         id="path52" />
      <path
         d="m 5465.9,3767.57 c 76.52,87.26 158.17,143 254.38,189.97 144.26,70.43 321.39,120.67 559.49,226.02 238.11,105.36 537.07,265.89 925.6,557.16 35.79,26.83 112.97,85.82 195.06,138.03 41.03,26.1 83.28,50.48 121.99,68.25 38.66,17.8 73.94,28.8 99.96,28.73 7.03,0 13.37,-0.78 18.92,-2.33 8.48,-2.35 16.76,-7.69 22.68,-14.49 5.96,-6.81 9.46,-14.88 9.44,-22.64 0,-2.24 -0.28,-4.48 -0.88,-6.73 l 7.25,-1.93 -0.33,7.5 c -67.18,-3 -156.77,-33.53 -257.72,-79.47 -151.32,-68.96 -327.72,-172.96 -487.05,-272.66 -159.29,-99.69 -301.53,-195.12 -383.92,-246.69 -3.51,-2.2 -4.58,-6.83 -2.38,-10.34 2.2,-3.51 6.83,-4.57 10.34,-2.38 110.34,69.07 326.19,215.55 547.05,346.17 110.42,65.31 222.06,126.63 322.18,172.25 100.05,45.65 188.82,75.44 252.15,78.13 3.28,0.15 6.08,2.39 6.92,5.57 0.94,3.52 1.39,7.08 1.39,10.58 -0.02,12.24 -5.31,23.55 -13.14,32.51 -7.87,8.97 -18.39,15.81 -29.94,19.06 -7.14,2 -14.83,2.89 -22.96,2.89 -30.03,-0.07 -66.52,-11.93 -106.22,-30.1 -59.47,-27.31 -125.89,-69.21 -184.3,-109.34 -58.38,-40.12 -108.71,-78.49 -135.48,-98.56 -517,-387.53 -873.96,-542.52 -1140.8,-644.93 -133.44,-51.21 -244.46,-89.26 -341.88,-136.78 -97.4,-47.5 -181.17,-104.65 -259.08,-193.56 -2.73,-3.12 -2.42,-7.86 0.69,-10.59 3.12,-2.73 7.86,-2.41 10.59,0.7"
         style="fill:#75a65d;fill-opacity:1;fill-rule:nonzero;stroke:none"
         id="path54" />
      <path
         d="m 5680.54,5315.69 c 204.86,-62.83 298.89,-106.27 365.99,-147.98 33.58,-20.87 60.59,-41.44 91.59,-64.08 30.99,-22.62 65.91,-47.24 114.95,-75.87 118.13,-69 203.35,-90.09 330.37,-121.84 127.1,-31.8 296.89,-74.49 586.73,-187.06 3.86,-1.5 8.21,0.42 9.71,4.28 1.5,3.86 -0.42,8.2 -4.28,9.7 -290.43,112.81 -461.34,155.82 -588.53,187.63 -127.27,31.85 -209.93,52.26 -326.43,120.24 -48.5,28.32 -82.83,52.53 -113.67,75.04 -46.23,33.74 -84.84,63.89 -150.33,97.21 -65.47,33.33 -157.63,69.82 -311.71,117.07 -3.96,1.22 -8.15,-1.01 -9.36,-4.97 -1.22,-3.96 1.01,-8.15 4.97,-9.37"
         style="fill:#75a65d;fill-opacity:1;fill-rule:nonzero;stroke:none"
         id="path56" />
      <path
         d="m 4983.17,4538.23 c 163.86,-51.96 331.79,-68.51 501.26,-68.51 300.24,0.03 605.47,51.85 902.45,51.82 37.38,0 74.63,-0.82 111.73,-2.66 65.4,-3.25 133.09,-9.25 199.91,-9.25 89.62,0 177.92,10.8 256.76,54.29 3.62,2 4.94,6.56 2.94,10.19 -2,3.63 -6.56,4.94 -10.19,2.94 -75.49,-41.68 -161.02,-52.43 -249.51,-52.42 -65.93,-0.01 -133.37,5.96 -199.17,9.23 -37.37,1.85 -74.87,2.68 -112.47,2.68 -298.7,-0.03 -603.92,-51.85 -902.45,-51.82 -168.5,0 -334.82,16.47 -496.72,67.81 -3.95,1.25 -8.17,-0.94 -9.42,-4.89 -1.25,-3.94 0.93,-8.16 4.88,-9.41"
         style="fill:#75a65d;fill-opacity:1;fill-rule:nonzero;stroke:none"
         id="path58" />
      <path
         d="m 7715.36,4100.63 c -96.19,101.28 -167.16,216.24 -214.03,326.28 -46.89,110.02 -69.62,215.19 -69.6,296.33 0,32.02 3.54,60.27 10.37,83.5 6.82,23.24 16.92,41.36 29.7,53.55 2.99,2.85 3.1,7.6 0.24,10.6 -2.86,2.99 -7.61,3.1 -10.6,0.24 -15.28,-14.61 -26.38,-35.16 -33.73,-60.16 -7.35,-25.03 -10.97,-54.61 -10.98,-87.73 0.02,-83.87 23.27,-190.59 70.8,-302.2 47.54,-111.59 119.4,-228.01 216.95,-330.74 2.85,-3.01 7.6,-3.13 10.6,-0.28 3.01,2.86 3.13,7.61 0.28,10.61"
         style="fill:#75a65d;fill-opacity:1;fill-rule:nonzero;stroke:none"
         id="path60" />
      <path
         d="m 7069.03,3658.29 c 13.22,167.46 68.42,304.9 124.01,462.53 55.56,157.57 111.29,335.14 124.35,581.67 1.07,20.53 5.35,43.49 13.67,63.46 8.31,20.02 20.55,36.82 37.08,46.18 3.6,2.04 4.86,6.62 2.82,10.22 -2.05,3.6 -6.62,4.86 -10.23,2.82 -20.48,-11.67 -34.38,-31.49 -43.52,-53.47 -9.14,-22.02 -13.63,-46.43 -14.8,-68.41 -13,-244.66 -68.1,-420.27 -123.52,-577.49 -55.39,-157.17 -111.34,-296.13 -124.82,-466.33 -0.32,-4.12 2.76,-7.74 6.89,-8.06 4.13,-0.33 7.74,2.75 8.07,6.88"
         style="fill:#75a65d;fill-opacity:1;fill-rule:nonzero;stroke:none"
         id="path62" />
      <path
         d="m 6058.74,2910.2 c 23.07,113.84 74.46,222.3 144.6,335.17 210.35,338.66 589.39,715.67 865.39,1393.94 1.56,3.84 -0.28,8.21 -4.12,9.78 -3.84,1.56 -8.21,-0.29 -9.77,-4.12 -183.3,-450.45 -412.05,-767.29 -607.02,-1029.46 -97.49,-131.09 -186.54,-248.51 -257.22,-362.23 -70.66,-113.7 -122.98,-223.79 -146.56,-340.1 -0.82,-4.06 1.8,-8.02 5.86,-8.84 4.06,-0.82 8.02,1.8 8.84,5.86"
         style="fill:#75a65d;fill-opacity:1;fill-rule:nonzero;stroke:none"
         id="path64" />
      <path
         d="m 780.48,2495.95 5.071,-5.53 -4.942,5.39 v -7.3 c 1.895,-0.05 3.93,0.91 4.942,1.91 l -4.942,5.39 v -7.3 7.23 l -3.371,-6.41 c 0.739,-0.39 1.883,-0.82 3.371,-0.82 v 7.23 l -3.371,-6.41 3.051,5.81 -5.148,-4.1 c 0.281,-0.3 0.632,-0.89 2.097,-1.71 l 3.051,5.81 -5.148,-4.1 2.707,2.15 -3.004,-1.73 0.297,-0.42 2.707,2.15 -3.004,-1.73 c 0.031,-0.02 0.636,-1.31 1.281,-3.1 2.551,-6.88 7,-21.94 12.066,-40.46 7.622,-27.84 16.797,-63.87 24.125,-94.51 3.668,-15.31 6.872,-29.29 9.184,-40.19 1.156,-5.45 2.09,-10.14 2.742,-13.79 0.656,-3.62 1.016,-6.37 1.043,-7.27 0.227,-4.88 0.34,-10 0.34,-15.31 0.027,-56.39 -12.742,-134.43 -32.766,-197.65 -9.988,-31.6 -21.832,-59.56 -34.414,-79.07 -6.269,-9.76 -12.722,-17.36 -18.89,-22.28 -6.207,-4.95 -11.832,-7.12 -17.067,-7.12 -4.086,0.02 -8.304,1.26 -13.168,4.55 -4.832,3.29 -10.156,8.71 -15.652,16.67 -28.891,41.71 -46.105,105.26 -46.066,175.81 -0.012,108.75 40.55,233.71 137.941,322.68 h 0.008 l -5.071,5.53 -5.058,5.54 c -101.067,-92.44 -142.813,-221.42 -142.82,-333.75 0.039,-72.96 17.507,-139.08 48.726,-184.34 6.25,-9.03 12.68,-15.84 19.535,-20.53 6.828,-4.68 14.235,-7.18 21.625,-7.16 9.567,0 18.5,4.04 26.438,10.41 13.914,11.21 25.91,29.73 36.871,52.85 32.613,69.34 54.742,181.03 54.828,257.86 0,5.52 -0.117,10.87 -0.355,16.01 -0.188,3.44 -1.051,8.34 -2.438,15.42 -4.852,24.45 -16.273,71.73 -27.051,113.12 -5.386,20.69 -10.601,39.86 -14.765,53.97 -2.086,7.06 -3.899,12.83 -5.391,17.02 -0.754,2.11 -1.402,3.79 -2.098,5.26 l -1.328,2.33 -1.543,1.68 c -0.801,0.63 -2.254,1.8 -5.047,1.87 -1.988,0.04 -4.109,-0.96 -5.199,-2.03 l 0.012,0.01 5.058,-5.54"
         style="fill:#75a65d;fill-opacity:1;fill-rule:nonzero;stroke:none"
         id="path66" />
      <path
         d="m 297.414,2387.67 -3.773,-6.48 c 107.797,-62.77 188.257,-151.03 241.648,-231 26.695,-39.98 46.621,-77.88 59.813,-109.33 6.593,-15.72 11.503,-29.83 14.734,-41.71 3.238,-11.86 4.758,-21.55 4.742,-28 0,-1 -0.035,-1.93 -0.101,-2.76 -0.809,-10.81 -3.164,-17.15 -5.477,-20.05 -1.164,-1.49 -2.234,-2.28 -3.551,-2.87 -1.32,-0.58 -3.004,-0.93 -5.258,-0.93 -4.859,-0.05 -12.109,1.86 -20.609,5.05 -8.523,3.16 -18.352,7.46 -29.07,11.63 -155.867,60.58 -250.426,208.1 -250.442,364.67 0,20.11 1.563,40.37 4.754,60.61 l -7.41,1.17 -3.773,-6.48 3.773,6.48 -7.406,1.17 c -3.317,-21.03 -4.938,-42.07 -4.938,-62.95 -0.015,-162.58 98.262,-315.78 260.008,-378.65 10.36,-4.03 20.164,-8.33 29.289,-11.71 9.145,-3.36 17.555,-5.95 25.824,-5.99 3.813,0 7.657,0.6 11.274,2.19 5.473,2.35 9.953,6.98 12.765,12.94 2.864,5.98 4.465,13.32 5.2,22.55 0.101,1.27 0.148,2.58 0.148,3.93 -0.019,8.61 -1.828,19.24 -5.269,31.94 -12.079,44.27 -44.606,113.59 -98.243,186.31 -53.632,72.67 -128.378,148.54 -224.878,204.75 -2.145,1.25 -4.75,1.36 -6.993,0.29 -2.242,-1.06 -3.8,-3.15 -4.187,-5.6 l 7.406,-1.17"
         style="fill:#75a65d;fill-opacity:1;fill-rule:nonzero;stroke:none"
         id="path68" />
      <path
         d="m 825.93,2148.09 c 32.715,89.84 88.269,137.33 145.347,167.43 28.539,15.01 57.453,25.53 83.943,34.48 26.51,8.96 50.54,16.29 69.64,25.3 l -3.2,6.78 -7.4,1.23 c -11.75,-71.06 -53.33,-144.39 -107.69,-199.52 -54.324,-55.22 -121.281,-91.89 -182.347,-91.78 -6.875,0 -13.68,0.46 -20.399,1.39 -4.101,0.57 -7.89,-2.29 -8.461,-6.39 -0.57,-4.1 2.293,-7.89 6.395,-8.46 7.43,-1.04 14.926,-1.54 22.465,-1.54 67.097,0.12 136.738,39.21 193.027,96.26 56.26,57.15 99.31,132.6 111.8,207.58 0.46,2.76 -0.64,5.53 -2.87,7.21 -2.24,1.69 -5.2,1.99 -7.73,0.8 -17.52,-8.3 -41.31,-15.64 -68.03,-24.65 -40.1,-13.56 -86.92,-31.02 -130.217,-62.82 -43.305,-31.77 -82.937,-78.04 -108.371,-148.18 -1.414,-3.9 0.594,-8.2 4.488,-9.61 3.895,-1.42 8.196,0.59 9.61,4.49"
         style="fill:#75a65d;fill-opacity:1;fill-rule:nonzero;stroke:none"
         id="path70" />
      <path
         d="m 598.223,1449.25 -2.899,6.92 c -56.246,-23.56 -115.156,-34.88 -173.457,-34.88 -139.215,0.01 -274.844,64.57 -361.7928,181.39 l -6.0156,-4.48 -2.1797,-7.17 c 20.1602,-6.14 39.293,-8.69 57.7071,-8.69 43.918,0.04 83.426,14.33 125.144,28.13 41.766,13.84 85.782,27.36 139.293,27.36 56.649,-0.02 124.27,-15.1 211.364,-62.22 31.082,-16.81 55.711,-30.13 72.07,-41.33 8.172,-5.57 14.242,-10.64 17.941,-14.97 3.747,-4.38 4.899,-7.6 4.887,-10.07 -0.015,-2.16 -0.777,-4.65 -3.594,-8.18 -4.171,-5.24 -12.937,-11.89 -26.464,-19.32 -13.52,-7.47 -31.743,-15.88 -54.903,-25.57 l 2.899,-6.92 2.894,-6.92 c 31.242,13.09 53.895,23.91 69.301,34.02 7.703,5.09 13.645,9.99 17.941,15.29 4.274,5.25 6.942,11.26 6.926,17.6 -0.012,7.36 -3.441,13.96 -8.508,19.84 -7.679,8.88 -19.523,17.23 -35.339,26.85 -15.805,9.58 -35.594,20.26 -58.915,32.88 -88.707,48.03 -159.101,64.04 -218.5,64.02 -56.085,0.01 -102.07,-14.22 -144.011,-28.12 -41.989,-13.95 -79.903,-27.4 -120.426,-27.37 -17.0352,0.01 -34.5938,2.34 -53.3438,8.04 -3.1016,0.94 -6.4531,-0.21 -8.3164,-2.86 -1.8633,-2.65 -1.8164,-6.2 0.1172,-8.79 89.867,-120.73 229.996,-187.44 373.824,-187.44 60.238,0 121.141,11.71 179.25,36.04 l -2.894,6.92"
         style="fill:#75a65d;fill-opacity:1;fill-rule:nonzero;stroke:none"
         id="path72" />
      <path
         d="m 1007.42,1557.69 7.4,1.19 c -4.35,26.98 -6.3,51.49 -6.3,73.94 0.08,87.13 29.14,143.35 64.13,193.7 34.92,50.27 76.33,94.15 98.45,155.06 l -7.05,2.55 -6.84,-3.08 c 23.39,-52.01 50.01,-84.8 75.36,-110.75 25.38,-25.96 49.14,-45.13 67.73,-70.25 28.37,-37.97 42.17,-105.58 42.06,-179.12 0.02,-76.79 -14.67,-160.11 -40.45,-223.49 -12.87,-31.69 -28.52,-58.36 -46.02,-76.7 -17.58,-18.4 -36.47,-28.3 -56.82,-28.31 -21.43,-0.02 -46.02,11.11 -73.43,39.1 -59.7,60.98 -97.25,143.15 -110.82,227.35 l -7.4,-1.19 -7.4,-1.2 c 14.03,-86.94 52.7,-171.86 114.9,-235.45 29,-29.66 57.27,-43.6 84.15,-43.61 25.51,-0.01 48.39,12.65 67.68,32.96 29.01,30.54 51.33,78.64 66.8,133.88 15.42,55.24 23.8,117.64 23.81,176.66 -0.1,75.36 -13.4,145.18 -45.02,188.06 -20.14,27.09 -44.49,46.58 -69.04,71.79 -24.59,25.22 -49.74,56.13 -72.41,106.43 -1.25,2.78 -4.07,4.53 -7.12,4.41 -3.05,-0.11 -5.73,-2.06 -6.77,-4.94 -20.66,-57.28 -60.76,-100.18 -96.66,-151.59 -35.84,-51.32 -66.906,-111.66 -66.824,-202.27 0,-23.32 2.035,-48.64 6.504,-76.33 l 7.4,1.2"
         style="fill:#75a65d;fill-opacity:1;fill-rule:nonzero;stroke:none"
         id="path74" />
      <path
         d="m 308.113,1230.31 -1.582,-7.33 c 18.91,-4.07 40.41,-5.61 64.129,-5.61 85,0.05 199.121,19.72 319.488,19.69 122.547,0 250.93,-20.29 361.102,-101.32 12.84,-9.43 21.84,-18.55 27.49,-26.99 5.65,-8.47 7.99,-16.1 8,-23.22 -0.01,-6.15 -1.74,-12.11 -5.35,-18.22 -6.27,-10.66 -18.6,-21.48 -36.1,-31.25 -26.21,-14.71 -63.673,-27.08 -107.821,-35.63 -44.156,-8.578 -95.02,-13.399 -148.266,-13.399 -98.348,-0.011 -204.828,16.489 -292.504,55.539 -43.847,19.52 -82.976,44.64 -114.199,76 -31.23,31.37 -54.602,68.93 -67.164,113.76 l -7.223,-2.02 -1.582,-7.33 1.582,7.33 -7.222,-2.02 c 13.269,-47.43 38.156,-87.36 70.98,-120.31 49.262,-49.44 116.207,-83.32 189.442,-104.95 73.253,-21.62 152.882,-30.991 227.89,-30.999 82.527,0.02 159.402,11.321 216.287,30.559 28.46,9.64 51.95,21.23 68.82,34.85 8.42,6.82 15.22,14.19 19.99,22.22 4.76,8.02 7.45,16.79 7.44,25.87 0.01,10.54 -3.59,21.23 -10.54,31.57 -6.96,10.37 -17.23,20.55 -31.06,30.73 -113.847,83.71 -245.921,104.24 -369.992,104.23 -121.875,-0.02 -236.64,-19.74 -319.488,-19.69 -23.062,0 -43.605,1.52 -60.965,5.27 -2.57,0.56 -5.238,-0.27 -7.043,-2.19 -1.804,-1.91 -2.468,-4.63 -1.761,-7.16 l 7.222,2.02"
         style="fill:#75a65d;fill-opacity:1;fill-rule:nonzero;stroke:none"
         id="path76" />
      <path
         d="m 1347.81,832.602 0.58,7.48 c -17.05,1.309 -34.05,1.91 -51.01,1.91 -93.11,-0.012 -184.83,-18.07 -276.12,-35.98 -91.295,-17.93 -182.158,-35.711 -273.459,-35.703 -9.09,0 -18.192,0.183 -27.293,0.55 -3.031,0.121 -5.856,-1.609 -7.121,-4.371 -1.266,-2.75 -0.739,-6.019 1.332,-8.238 177.629,-190.66 361.511,-253.02 517.331,-252.949 114.74,0.008 214.12,33.59 285.21,73.879 35.56,20.172 64.06,41.992 84,62.402 9.98,10.219 17.82,20.066 23.35,29.367 5.5,9.313 8.82,18.071 9.07,26.539 l 0.02,1.453 c 0.01,12.239 -3.97,23.731 -10.67,34.008 -11.77,18.031 -31.52,32.891 -55.16,45.723 -35.48,19.187 -80.06,33.637 -120.93,43.816 -40.9,10.164 -77.92,15.992 -98.55,17.594 l -0.58,-7.48 -0.57,-7.481 c 29.53,-2.242 98.99,-14.41 160.08,-36.332 30.56,-10.937 59.08,-24.379 79.42,-39.789 10.18,-7.691 18.28,-15.852 23.71,-24.219 5.43,-8.39 8.24,-16.851 8.25,-25.84 l -0.01,-1.07 c -0.08,-4.551 -2.24,-11.34 -6.98,-19.262 -8.23,-13.91 -23.91,-31.14 -45.82,-48.738 -65.77,-52.961 -187.18,-109.633 -333.84,-109.57 -151.79,0.07 -331.011,60.179 -506.359,248.179 l -5.488,-5.121 -0.301,-7.488 c 9.313,-0.379 18.614,-0.562 27.899,-0.562 93.254,0.011 185.054,18.07 276.349,35.98 91.29,17.93 182.08,35.711 273.23,35.703 16.6,0 33.22,-0.59 49.85,-1.871 l 0.58,7.481"
         style="fill:#75a65d;fill-opacity:1;fill-rule:nonzero;stroke:none"
         id="path78" />
      <path
         d="m 1627.03,1892.33 -7.26,-1.9 c 11.15,-42.72 33.72,-98.54 61.32,-162.77 41.41,-96.3 94.16,-211.32 136.5,-327.09 42.36,-115.74 74.21,-232.27 74.17,-330.78 0,-42.48 -5.9,-81.56 -19.18,-115.86 -13.3,-34.301 -33.9,-63.86 -63.74,-87.75 -9.58,-7.629 -20.7,-11.239 -33.79,-11.27 -26.32,-0.129 -60.53,15.731 -96.21,45.422 -53.59,44.43 -110.53,119.138 -153.81,211.888 -43.31,92.76 -73.06,203.54 -73.05,320.32 0.04,149.72 48.68,309.26 180.6,454.75 l -5.55,5.04 -7.26,-1.9 7.26,1.9 -5.55,5.03 c -134.46,-148.16 -184.55,-311.87 -184.5,-464.82 0.02,-159.13 53.89,-306.62 122.6,-414.65 34.37,-54.019 72.45,-98.199 109.68,-129.101 37.27,-30.82 73.63,-48.758 105.79,-48.879 15.92,-0.039 30.85,4.672 43.16,14.559 31.98,25.562 54.25,57.562 68.36,94.051 14.12,36.492 20.18,77.41 20.19,121.27 -0.09,135.54 -57.64,299.72 -120.31,451.37 -31.36,75.79 -64.04,148.39 -91.57,212.42 -27.54,64.01 -49.91,119.55 -60.59,160.64 -0.7,2.66 -2.8,4.73 -5.47,5.39 -2.67,0.66 -5.5,-0.21 -7.34,-2.25 l 5.55,-5.03"
         style="fill:#75a65d;fill-opacity:1;fill-rule:nonzero;stroke:none"
         id="path80" />
      <path
         d="m 1599.01,473.621 -2.49,7.078 c -53.7,-18.847 -104.36,-45.801 -155.29,-69.367 -50.93,-23.594 -102.05,-43.773 -156.54,-49.703 -3.42,-0.367 -6.13,-3 -6.61,-6.41 -0.48,-3.41 1.4,-6.68 4.58,-7.977 68.55,-27.953 123.66,-82.953 186.89,-126.851 114.77,-79.493 243.08,-107.969 359.95,-107.961 99.87,0.011 191.45,20.73 259.85,48.441 34.2,13.871 62.61,29.461 83.49,45.328 10.44,7.949 19.02,15.973 25.5,24.031 6.46,8.071 10.92,16.219 12.66,24.622 0.69,3.367 1.02,6.839 1.02,10.367 -0.15,23.203 -13.5,49.113 -36.16,75.941 -34.12,40.149 -90.15,82.211 -160.26,114.488 -70.1,32.25 -154.28,54.622 -244.43,54.622 -56.58,0 -115.51,-8.821 -174.65,-29.571 l 2.49,-7.078 2.48,-7.07 c 57.45,20.148 114.65,28.719 169.68,28.719 116.86,0.019 223.98,-38.782 301.59,-87.438 38.8,-24.301 70.2,-51.082 91.67,-76.383 21.55,-25.25 32.73,-49.168 32.59,-66.23 0,-2.598 -0.25,-5.059 -0.72,-7.367 -1.03,-5.153 -4.18,-11.422 -9.65,-18.223 -9.55,-11.93 -26.03,-25.258 -47.99,-38.16 -65.94,-38.84 -180.86,-74.09 -309.16,-74.039 -114.49,0.011 -239.62,27.871 -351.41,105.289 -61.81,42.703 -117.52,98.742 -189.75,128.402 l -2.84,-6.941 0.82,-7.461 c 57.14,6.242 109.79,27.203 161.21,51 51.42,23.82 101.69,50.511 153.96,68.832 l -2.48,7.07"
         style="fill:#75a65d;fill-opacity:1;fill-rule:nonzero;stroke:none"
         id="path82" />
      <path
         d="m 2075.66,1102.31 -6.09,-4.38 c 101.42,-141.121 172.05,-276.789 217.3,-394.34 45.25,-117.508 65.05,-217.031 65.03,-285.168 0.03,-32.32 -4.53,-57.543 -12.26,-73.774 -3.85,-8.128 -8.41,-13.949 -13.31,-17.648 -4.94,-3.691 -10.17,-5.488 -16.53,-5.52 -4.23,0 -9,0.872 -14.3,2.809 -4.68,1.801 -5.97,2.91 -8.4,5.609 -3.61,4.133 -8.51,12.622 -21.26,25.653 -12.81,13.121 -33.7,31.148 -70.97,56.871 -78.62,54.238 -129.18,106.937 -160.07,158.617 -30.88,51.691 -42.3,102.41 -42.33,153.723 -0.02,59.789 15.74,120.398 35.05,182.758 19.28,62.359 42.06,126.43 55.49,193.31 l -7.35,1.48 -6.09,-4.38 6.09,4.38 -7.36,1.47 c -13.13,-65.48 -35.69,-129.069 -55.11,-191.831 -19.4,-62.75 -35.7,-124.738 -35.72,-187.187 -0.03,-53.543 12.13,-107.403 44.46,-161.422 32.31,-54.031 84.57,-108.168 164.42,-163.258 49.02,-33.832 68.38,-53.543 78.28,-65.57 4.99,-6.063 7.62,-10.301 11.09,-14.383 3.43,-4.117 8.17,-7.668 14.63,-9.93 6.66,-2.437 13.17,-3.719 19.45,-3.719 9.41,-0.031 18.25,2.981 25.57,8.551 11.03,8.391 18.71,21.86 23.84,39.211 5.11,17.387 7.68,38.899 7.68,64.18 -0.02,70.918 -20.31,171.707 -66.03,290.558 -45.73,118.821 -116.96,255.559 -219.11,397.7 -1.75,2.43 -4.75,3.59 -7.67,2.96 -2.92,-0.63 -5.19,-2.93 -5.78,-5.86 l 7.36,-1.47"
         style="fill:#75a65d;fill-opacity:1;fill-rule:nonzero;stroke:none"
         id="path84" />
      <path
         d="m 1917.55,-1.53906 -3.37,6.69922 c -67.57,-34.03126 -128.95,-79.48046 -199.43,-97.80076 -3.06,-0.8008 -5.29,-3.418 -5.57,-6.5782 -0.29,-3.1602 1.43,-6.1402 4.31,-7.4722 177.67,-82.52 333.7,-111.829 460.37,-111.829 96.16,0.008 175.37,16.879 234.38,40.219 29.51,11.68 53.97,24.973 73.03,38.68 19.05,13.742 32.75,27.82 40.63,41.6522 6.12,10.7579 9.19,21.8086 9.18,32.6993 -0.01,20.2382 -10.45,38.9179 -27.56,55.0586 -25.77,24.2695 -67.08,44.0898 -118.08,58.2304 -51,14.0821 -111.7,22.2891 -176,22.3008 C 2112.11,70.3086 2006.5,51.5117 1914.18,5.16016 l 3.37,-6.69922 3.37,-6.69922 c 89.62,45.03908 193.11,63.57028 288.52,63.55858 84.02,0.0195 161.79,-14.3984 217.91,-37.1914 28.06,-11.36718 50.67,-24.84765 65.87,-39.2383 15.26,-14.4609 22.87,-29.3203 22.86,-44.1601 -0.01,-8.0821 -2.21,-16.4414 -7.23,-25.3008 -6.25,-11.0777 -18.48,-24.0507 -36.34,-36.8707 -53.59,-38.637 -157.09,-76.129 -298.65,-76.079 -124.35,0.008 -278.19,28.758 -454.05,110.4302 l -3.16,-6.8008 1.89,-7.2574 c 74.21,19.4683 136.32,65.8277 202.37,98.90972 l -3.36,6.69922"
         style="fill:#75a65d;fill-opacity:1;fill-rule:nonzero;stroke:none"
         id="path86" />
      <path
         d="M 2847.6,228.969 2840.17,228 c 1.61,-12.398 2.36,-24.648 2.36,-36.691 0.03,-73.317 -27.94,-139.4301 -58.14,-187.09025 -15.09,-23.82035 -30.72,-43.01955 -43.45,-56.08985 -6.36,-6.5273 -12.01,-11.5273 -16.32,-14.7305 -2.15,-1.5976 -3.97,-2.7382 -5.22,-3.3672 l -1.29,-0.5625 -0.11,-0.0273 0.49,-1.9023 v 1.9296 l -0.49,-0.0273 0.49,-1.9023 v 1.9296 -3.9296 l 0.36,3.9218 -0.36,0.0078 v -3.9296 l 0.36,3.9218 0.05,-0.0117 c -2.1,0.1016 -7.65,2.3008 -14.38,6.9219 -11.93,8.0078 -28.17,22.7187 -45.91,42.4805 -53.4,59.3086 -120.97,164.2304 -143.93,275.5894 -6.15,29.739 -8.86,59.508 -8.86,89.309 -0.09,140.871 60.96,282.801 104.47,422.949 l -7.16,2.223 -7.28,-1.82 c 24.61,-98.223 79.76,-183.891 131.48,-269.661 51.8,-85.781 100.12,-171.543 112.84,-269.441 l 7.43,0.969 7.44,0.972 c -13.27,101.688 -63.01,189.27 -114.87,275.25 -51.93,86 -106.03,170.508 -129.77,265.551 -0.82,3.27 -3.69,5.578 -7.07,5.668 -3.37,0.102 -6.37,-2.051 -7.37,-5.269 C 2552.93,632 2490.91,488.961 2490.82,343.75 c 0,-30.711 2.8,-61.508 9.17,-92.348 18.18,-87.761 62.45,-170.3434 106.7,-231.7301 22.14,-30.7032 44.27,-56.0703 63.35,-74.1914 9.55,-9.0586 18.32,-16.3086 26.11,-21.5586 7.86,-5.2032 14.46,-8.6133 21.27,-9.3907 l 0.05,-0.0117 1.02,-0.039 c 3.2,0.0703 5.35,1.039 7.71,2.1797 4.33,2.2187 9.09,5.7695 14.71,10.6914 19.46,17.1679 48.29,51.3593 72.64,97.2578 24.3,45.8594 43.97,103.3906 43.98,166.6996 0,12.66 -0.79,25.562 -2.49,38.632 l -7.44,-0.972"
         style="fill:#75a65d;fill-opacity:1;fill-rule:nonzero;stroke:none"
         id="path88" />
      <path
         d="m 741.59,2353.46 c -22.043,-91.36 -32.352,-178.88 -32.352,-262.92 -0.019,-281.2 115.477,-522.93 290.972,-739.67 263.28,-325.15 661.63,-595.198 1012.16,-862.03 175.26,-133.379 338.54,-265.91 466.96,-403.7306 128.44,-137.8399 221.87,-280.8284 258.22,-435.0504 0.95,-4.028 4.99,-6.528 9.02,-5.579 4.03,0.95 6.53,4.989 5.58,9.02 -49.71,210.5 -202.17,398.1289 -401.94,579.012 -299.75,271.277 -706.82,527.84 -1038.54,820.898 -165.86,146.5 -312.83,302.06 -418.201,472.81 -105.375,170.78 -169.215,356.58 -169.231,564.32 0,82.81 10.153,169.13 31.934,259.4 0.969,4.03 -1.508,8.08 -5.535,9.05 -4.028,0.97 -8.078,-1.5 -9.047,-5.53"
         style="fill:#75a65d;fill-opacity:1;fill-rule:nonzero;stroke:none"
         id="path90" />
      <path
         d="m 357.867,2273.72 c 40.41,-124.09 109.891,-202.38 183.594,-269.42 73.769,-67.07 151.598,-123.28 210.809,-203.69 2.457,-3.33 7.152,-4.05 10.488,-1.59 3.332,2.46 4.043,7.15 1.586,10.49 -61.055,82.76 -139.938,139.53 -212.785,205.89 -72.911,66.4 -139.954,142.02 -179.43,262.97 -1.281,3.94 -5.516,6.09 -9.453,4.81 -3.942,-1.29 -6.09,-5.52 -4.809,-9.46"
         style="fill:#75a65d;fill-opacity:1;fill-rule:nonzero;stroke:none"
         id="path92" />
      <path
         d="m 1039.85,2304.49 c -99.795,-34.53 -162.873,-96.68 -232.104,-174.06 -2.762,-3.08 -2.5,-7.83 0.586,-10.59 3.09,-2.76 7.828,-2.5 10.59,0.59 69.062,77.14 129.676,136.56 225.828,169.88 3.92,1.36 5.99,5.63 4.64,9.54 -1.36,3.92 -5.63,5.99 -9.54,4.64"
         style="fill:#75a65d;fill-opacity:1;fill-rule:nonzero;stroke:none"
         id="path94" />
      <path
         d="m 266.223,1530.09 c 49.836,2.23 100.933,3.97 152.363,3.97 196.73,0.03 397.926,-25.65 552.695,-146.1 3.27,-2.54 7.981,-1.95 10.524,1.32 2.543,3.27 1.957,7.98 -1.317,10.52 -159.203,123.74 -364.05,149.23 -561.902,149.26 -51.77,0 -103.09,-1.75 -153.035,-3.99 -4.137,-0.18 -7.344,-3.69 -7.156,-7.83 0.183,-4.14 3.687,-7.34 7.828,-7.15"
         style="fill:#75a65d;fill-opacity:1;fill-rule:nonzero;stroke:none"
         id="path96" />
      <path
         d="m 1178.79,1828.92 c -33.26,-86.87 -49.3,-180.27 -49.3,-274.09 0.02,-193.42 68.14,-388.74 195.04,-532.55 2.74,-3.11 7.48,-3.4 10.59,-0.66 3.11,2.74 3.4,7.48 0.66,10.58 -124.23,140.7 -191.31,332.7 -191.29,522.63 0,92.11 15.76,183.71 48.31,268.73 1.48,3.87 -0.45,8.2 -4.32,9.68 -3.87,1.49 -8.21,-0.45 -9.69,-4.32"
         style="fill:#75a65d;fill-opacity:1;fill-rule:nonzero;stroke:none"
         id="path98" />
      <path
         d="m 1613.9,1660.87 c -18.46,-58.26 -26.49,-116.15 -26.49,-173.54 0.04,-161.99 63.75,-319.79 137.01,-474.16 73.33,-154.35 156.34,-305.459 196.24,-453.15 1.08,-4 5.19,-6.372 9.19,-5.278 4,1.078 6.37,5.188 5.29,9.188 -40.65,150.211 -124.14,301.812 -197.17,455.67 -73.09,153.85 -135.61,309.78 -135.56,467.73 0,56 7.82,112.28 25.79,169.01 1.25,3.95 -0.93,8.16 -4.88,9.41 -3.95,1.26 -8.17,-0.93 -9.42,-4.88"
         style="fill:#75a65d;fill-opacity:1;fill-rule:nonzero;stroke:none"
         id="path100" />
      <path
         d="m 514.523,1132.62 c 55.317,11.58 110.879,16.72 166.5,16.72 243.043,0.07 487.357,-98.5 714.237,-186.82 3.86,-1.508 8.21,0.41 9.71,4.269 1.5,3.859 -0.41,8.199 -4.27,9.711 -226.79,88.17 -472.559,187.78 -719.677,187.84 -56.546,0 -113.156,-5.23 -169.574,-17.04 -4.054,-0.85 -6.652,-4.82 -5.804,-8.88 0.847,-4.05 4.824,-6.65 8.878,-5.8"
         style="fill:#75a65d;fill-opacity:1;fill-rule:nonzero;stroke:none"
         id="path102" />
      <path
         d="m 954.523,678.66 c 55.967,-8.441 112.517,-11.371 169.257,-11.371 131.04,0.02 263.16,15.582 391.77,15.57 102.6,0 202.88,-9.867 298.75,-45.058 3.89,-1.422 8.2,0.57 9.62,4.461 1.43,3.886 -0.57,8.199 -4.45,9.629 -98.23,36.031 -200.38,45.968 -303.92,45.968 -129.8,-0.019 -261.91,-15.578 -391.77,-15.57 -56.22,0 -112.02,2.91 -167.022,11.203 -4.098,0.617 -7.918,-2.203 -8.535,-6.301 -0.618,-4.089 2.203,-7.91 6.3,-8.531"
         style="fill:#75a65d;fill-opacity:1;fill-rule:nonzero;stroke:none"
         id="path104" />
      <path
         d="m 2127.56,870.898 c -7.98,-18.777 -12.47,-37.027 -12.45,-58.539 0.06,-35.558 11.72,-79.468 37.31,-153.808 25.62,-74.332 65.37,-179.153 122.19,-335.871 2.58,-7.078 7.12,-15.918 12.87,-25.871 8.62,-14.887 19.93,-32.039 31.04,-47.278 11.17,-15.261 21.9,-28.449 30.2,-35.941 3.08,-2.77 7.82,-2.508 10.59,0.57 2.77,3.082 2.51,7.82 -0.57,10.59 -4.38,3.922 -10.69,11.031 -17.51,19.648 -10.25,12.961 -21.86,29.473 -31.67,44.954 -9.8,15.418 -17.87,30.117 -20.85,38.437 -56.85,156.801 -96.63,261.711 -122.11,335.652 -25.52,73.938 -36.54,116.84 -36.49,148.918 0.03,19.461 3.86,35.153 11.26,52.692 1.62,3.808 -0.16,8.211 -3.98,9.828 -3.81,1.621 -8.21,-0.168 -9.83,-3.981"
         style="fill:#75a65d;fill-opacity:1;fill-rule:nonzero;stroke:none"
         id="path106" />
      <path
         d="m 1526.83,291.84 c 35.7,18.16 77.58,25.152 123.87,25.14 69.2,0.032 147.93,-15.66 228.92,-31.5 81.01,-15.82 164.29,-31.769 243.25,-31.789 54.38,0.008 106.79,7.598 154.79,28.309 3.8,1.641 5.55,6.051 3.91,9.859 -1.64,3.801 -6.05,5.551 -9.86,3.911 -45.54,-19.661 -95.83,-27.079 -148.84,-27.079 -76.94,-0.011 -159.43,15.68 -240.37,31.508 -80.97,15.801 -160.38,31.762 -231.8,31.781 -47.75,0 -92.08,-7.16 -130.66,-26.769 -3.7,-1.879 -5.17,-6.391 -3.29,-10.09 1.88,-3.691 6.39,-5.16 10.08,-3.281"
         style="fill:#75a65d;fill-opacity:1;fill-rule:nonzero;stroke:none"
         id="path108" />
      <path
         d="m 2610.95,457.711 c 71.04,-131.289 110.74,-281.531 110.73,-430.5821 0,-78.3984 -10.97,-156.4809 -34.1,-231.3279 -1.23,-3.961 0.99,-8.16 4.95,-9.379 3.95,-1.231 8.15,0.988 9.38,4.949 23.6,76.391 34.77,155.961 34.77,235.7579 0,151.7231 -40.35,304.2811 -112.53,437.7231 -1.97,3.64 -6.52,5 -10.17,3.027 -3.64,-1.969 -5,-6.527 -3.03,-10.168"
         style="fill:#75a65d;fill-opacity:1;fill-rule:nonzero;stroke:none"
         id="path110" />
      <path
         d="m 0,2500.23 v 30.37 c 297.918,49.04 578.805,211.36 758.387,454.29 90.601,122.42 157.508,265.22 234.551,405.87 77.062,140.59 164.492,279.18 297.202,391.78 88.44,75.05 196.94,138.36 335.06,182.88 145.27,46.86 268,62.55 379.47,76.2 111.54,13.64 211.54,25.33 313.23,63.32 67.83,25.33 136.63,62.35 210.59,119.92 98.58,76.75 206.24,190.2 331.39,360.89 97.38,132.82 191.57,271.55 271.34,414.25 h 34.31 c -82.35,-149.43 -180.35,-294.07 -281.46,-431.98 -142.02,-193.68 -262.69,-315.77 -374.87,-394.8 -112.13,-79.05 -215.79,-114.6 -321.25,-135.26 -70.33,-13.82 -141.45,-21.17 -217.1,-30.76 -100.87,-12.8 -209.83,-29.51 -336.45,-70.33 -134.59,-43.42 -239.27,-104.62 -324.86,-177.21 -85.56,-72.59 -152.05,-156.69 -209.56,-246.1 C 984.875,3334.82 906.391,3134.74 782.508,2967.05 596.684,2715.98 307.246,2549.48 0,2500.23"
         style="fill:#4c6a3f;fill-opacity:1;fill-rule:nonzero;stroke:none"
         id="path112" />
      <path
         d="m 244.094,4374.68 c -78.266,0 -160.9417,22.61 -244.094,73.03 v 35.44 c 84.4688,-54.94 167.02,-78.44 244.254,-78.47 64.59,0.01 125.676,16.49 181.281,45.63 55.586,29.14 105.641,70.99 147.641,121.58 84.047,101.16 135.574,237.25 135.527,374.43 0,17.9 -0.875,35.82 -2.66,53.68 h 30.141 c 1.691,-17.89 2.519,-35.8 2.519,-53.68 -0.015,-108.51 -30.379,-215.64 -82.848,-307.43 -52.488,-91.77 -127.148,-168.34 -216.39,-215.15 -59.465,-31.19 -125.449,-49.06 -195.164,-49.06 -0.012,0 -0.035,0 -0.047,0 -0.055,0 -0.106,0 -0.16,0"
         style="fill:#5b814b;fill-opacity:1;fill-rule:nonzero;stroke:none"
         id="path114" />
      <path
         d="M 133.715,4572.48 C 98.2344,4572.5 63.1055,4582.84 32.6875,4600.61 21.0234,4607.44 10.0352,4615.38 0,4624.3 v 43.64 c 6.78516,-8.73 14.6367,-16.84 23.332,-24.16 30.2969,-25.59 70.7969,-41.3 110.168,-41.3 0.07,0 0.145,0 0.215,0 1.402,0 2.805,0.02 4.199,0.06 38.34,1.09 73.645,11.94 105.453,30.49 31.785,18.55 60.02,44.86 83.531,76.77 47.063,63.76 74.942,149.87 74.903,238.19 0,17.3 -1.067,34.69 -3.246,52.01 h 30.218 c 2.036,-17.35 3.024,-34.73 3.024,-52.01 -0.012,-70.94 -16.641,-140.32 -46.52,-199.94 -29.89,-59.59 -73.113,-109.57 -126.789,-140.93 -35.754,-20.89 -76.191,-33.36 -119.73,-34.57 -1.684,-0.05 -3.363,-0.07 -5.043,-0.07"
         style="fill:#5b814b;fill-opacity:1;fill-rule:nonzero;stroke:none"
         id="path116" />
      <path
         d="m 6697.99,0 h -31.01 c -14.23,55.7617 -20.97,113.801 -20.95,172.422 0.01,39.808 3.1,79.898 9.07,119.797 10.82,4.332 21.63,8.66 32.45,13 -7.58,-44.239 -11.54,-88.778 -11.52,-132.797 0.01,-59.024 7.09,-117.0822 21.96,-172.422 m -40.84,305.27 c 21.56,130.5 73.6,258.179 148.43,365.55 172.44,247.071 434.7,408.72 694.42,556.65 v -34.51 C 7245.85,1047.74 6994.44,889.398 6830.19,653.66 6758.96,551.582 6708.98,429.75 6687.62,305.621 c -10.01,-0.09 -20.19,-0.199 -30.47,-0.351"
         style="fill:#567948;fill-opacity:1;fill-rule:nonzero;stroke:none"
         id="path118" />
      <path
         d="m 6655.1,292.219 c 0.64,4.34 1.33,8.711 2.05,13.051 10.28,0.152 20.46,0.261 30.47,0.351 -0.02,-0.141 -0.04,-0.262 -0.07,-0.402 -10.82,-4.34 -21.63,-8.668 -32.45,-13"
         style="fill:#60884e;fill-opacity:1;fill-rule:nonzero;stroke:none"
         id="path120" />
      <path
         d="m 7011.36,0 h -30.47 c -4.8,28.0117 -7.11,56.6719 -7.11,85.5313 0.04,112.6097 35.08,228.4377 96.92,322.3597 63.25,95.988 146.59,173.48 238.48,240.738 60.89,44.562 125.56,84.66 190.82,122.711 v -34.781 c -59.58,-35.098 -118.11,-71.887 -173.1,-112.137 -90.04,-65.902 -170.52,-141 -231.15,-233.031 -58.53,-88.75 -92.01,-199.5 -91.97,-305.8597 0,-29.0196 2.48,-57.6993 7.58,-85.5313"
         style="fill:#567948;fill-opacity:1;fill-rule:nonzero;stroke:none"
         id="path122" />
      <path
         d="M 1014.27,0 H 979.543 C 928.836,86.2383 877.609,159.531 825.922,221.332 717.07,351.461 606.453,430.609 493.871,473.309 c -75.078,28.461 -151.18,40.773 -228.699,40.781 -0.074,0 -0.129,0 -0.203,0 C 178.414,514.09 90.0234,498.621 0,472.992 v 31.18 c 89.2422,24.828 177.617,39.887 265.172,39.91 80.687,0.008 160.633,-12.871 239.336,-42.723 78.711,-29.828 156.101,-76.597 231.89,-143.918 C 831.41,273.012 923.957,156.449 1014.27,0"
         style="fill:#567948;fill-opacity:1;fill-rule:nonzero;stroke:none"
         id="path124" />
      <path
         d="M 692.383,0 H 654.344 C 513.926,174.191 300.828,274.18 80.0156,274.191 53.418,274.191 26.7031,272.738 0,269.789 v 30.172 c 26.7031,2.828 53.3984,4.23 79.9883,4.23 0.0039,0 0.0234,0 0.0273,0 C 317.645,304.199 546.652,192.922 692.383,0"
         style="fill:#567948;fill-opacity:1;fill-rule:nonzero;stroke:none"
         id="path126" />
      <path
         d="m 1408.36,2554.33 c -2.23,10.51 -4.46,21 -6.67,31.5 53.4,60.16 80.02,150.81 87.2,228.69 23.38,253.67 -33.36,442.09 459.04,928 396.69,391.47 783.77,43.49 1187.67,451.02 139.46,140.7 221.68,322.66 252.99,516.25 2.24,13.84 15.25,20.81 28.2,20.81 12.9,0 25.74,-6.91 27.85,-20.81 47.82,-316.16 -164.53,-656.58 -500.83,-784.58 -434.98,-165.56 -721.12,171.26 -1248.49,-604.96 -204.37,-300.81 -97.48,-508.23 -223.71,-695.57 -17.78,-26.39 -39.04,-50.5 -63.25,-70.35"
         style="fill:#658c50;fill-opacity:1;fill-rule:nonzero;stroke:none"
         id="path128" />
      <path
         d="m 1265.15,2500 c -3.01,0 -6.04,0.06 -9.07,0.2 -12.02,0.52 -12.12,18.75 -0.01,18.75 0,0 0,0 0.01,0 0.05,0 0.09,0 0.14,0 61.98,0 109.73,26.61 145.47,66.88 2.21,-10.5 4.44,-20.99 6.67,-31.5 -40.39,-33.12 -88.97,-54.33 -143.21,-54.33"
         style="fill:#60854c;fill-opacity:1;fill-rule:nonzero;stroke:none"
         id="path130" />
    </g>
  </g>
</svg>
