<svg width="292" height="292" viewBox="0 0 292 292" fill="none" xmlns="http://www.w3.org/2000/svg">
<path d="M113.871 100.114L144.769 49.0143L124.286 14.9476C121.509 10.3127 117.516 7.99524 112.309 7.99524C107.101 7.99524 103.109 10.3127 100.332 14.9476L66.3091 71.6095L113.871 100.114ZM248.225 194.667L217.327 143.219L265.584 115.41L287.802 152.605C290.348 156.544 291.737 160.948 291.968 165.814C292.2 170.681 291.158 175.2 288.844 179.371C286.529 184.006 283.116 187.714 278.602 190.495C274.089 193.276 269.171 194.667 263.848 194.667H248.225ZM208.301 292L152.754 236.381L208.301 180.762V208.571H274.263L254.127 248.895C251.581 253.53 248.11 257.238 243.712 260.019C239.315 262.8 234.454 264.19 229.131 264.19H208.301V292ZM73.9468 264.19C69.3179 264.19 65.094 262.974 61.2752 260.54C57.4563 258.107 54.6211 254.921 52.7696 250.981C50.918 247.273 50.0501 243.391 50.1658 239.336C50.2815 235.28 51.3809 231.514 53.4639 228.038L65.2676 208.571H124.981V264.19H73.9468ZM39.5772 224.562L17.0112 179.371C14.9282 175.2 13.9446 170.739 14.0603 165.988C14.176 161.237 15.5068 156.776 18.0527 152.605L23.6074 143.219L0 128.967L76.0298 109.848L95.1241 186.324L71.1695 171.724L39.5772 224.562ZM227.048 105.676L151.018 86.5571L174.973 72.3048L131.577 0H180.527C185.388 0 189.959 1.21667 194.241 3.65C198.522 6.08333 201.936 9.38571 204.482 13.5571L222.535 43.8L246.142 29.2L227.048 105.676Z" fill="#BBC98D"/>
</svg>
