<svg width="1000" height="500" viewBox="0 0 638 388" fill="none" xmlns="http://www.w3.org/2000/svg">
<path d="M536 344C563.833 344 622.1 327.6 632.5 262" stroke="#719A5B" stroke-width="10" stroke-linecap="round"/>
<path d="M82.0426 100.509C83.3369 68.2371 108.746 4.07376 200.03 5.5944" stroke="#719A5B" stroke-width="10" stroke-linecap="round"/>
<path d="M114.5 94.5C117.5 70.6667 138.6 25.4 199 35" stroke="#719A5B" stroke-width="10" stroke-linecap="round"/>
<path d="M2.49666 379.523C2.86616 379.523 3.0773 379.346 2.97173 379.15C2.86615 378.955 2.86615 378.475 3.28844 378.759C3.71073 379.043 4.46733 380.27 4.53771 379.985C4.6081 379.701 4.90722 378.919 4.9776 379.221C5.04798 379.523 5.55823 380.11 6.01571 380.021C7.03451 379.979 8.05389 380.087 9.0421 380.341H9.79869C10.1587 380.362 10.5141 380.434 10.8544 380.554C11.2943 380.643 11.9277 380.554 12.1037 380.856C12.526 381.389 12.7547 380.643 13.1946 380.856L13.5817 381.016C14.3406 380.845 15.1277 380.845 15.8867 381.016H16.4673C17.2415 381.016 18.1388 380.643 18.7899 380.838L19.7048 381.105C20.9034 380.788 22.1287 380.586 23.3646 380.501L24.5259 380.607C25.6645 380.838 26.845 380.727 27.9218 380.287C28.4455 380.1 29.0169 380.1 29.5406 380.287C29.7094 380.375 29.8963 380.42 30.086 380.42C30.2757 380.42 30.4627 380.375 30.6315 380.287C31.1769 380.11 31.9159 379.417 32.6021 380.287C32.7336 380.331 32.8754 380.331 33.0068 380.287C33.3412 379.719 33.7106 380.394 34.045 380.287C34.3982 380.058 34.7838 379.884 35.1887 379.772H35.5581C36.4086 379.915 37.2766 379.915 38.1271 379.772C39.4373 379.578 40.7272 379.263 41.9804 378.83L42.3147 379.079C42.5414 379.209 42.801 379.268 43.0609 379.249C43.3208 379.23 43.5693 379.134 43.7751 378.972C44.378 378.719 45.0109 378.546 45.6578 378.457C46.271 378.224 46.9205 378.104 47.5757 378.102C48.2795 378.208 48.7722 377.586 49.4232 377.906C49.4232 377.906 49.564 378.048 49.5816 378.03C50.2854 377.799 50.778 377.089 51.7282 377.444L53.998 377.195L54.7018 376.875C55.8764 376.425 57.0898 376.086 58.3264 375.862L59.4349 375.72C59.8924 375.72 60.4202 375.72 60.3499 375.152C60.5023 375.031 60.6853 374.958 60.8777 374.938L62.039 375.614C62.7474 375.012 63.5206 374.494 64.344 374.068C65.0767 373.751 65.7779 373.364 66.4378 372.912C67.4574 372.761 68.4865 372.684 69.517 372.681C70.9734 371.944 72.368 371.088 73.6871 370.122H74.8836H75.5346C76.3967 369.678 76.4671 368.63 75.7105 367.777L75.341 366.977C74.8827 366.1 74.5001 365.184 74.1973 364.24C73.4129 362.236 73.0706 360.083 73.1944 357.932L73.4407 356.599C73.5463 355.124 73.7574 353.329 73.8982 352.6L73.7223 351.889C73.6777 351.142 73.823 350.396 74.1445 349.721L74.3909 349.028C74.778 348.282 75.2354 347.447 75.4114 347.145C75.7299 346.583 75.9838 345.987 76.168 345.368C76.168 345.048 77.2941 344.479 77.3997 344.301V344.141L77.8923 342.986C79.0913 341.729 80.3602 340.543 81.6929 339.432L82.08 338.597C82.3615 337.975 83.2589 338.028 83.3997 337.299C83.3997 336.926 84.4202 336.66 84.9656 336.322C85.2143 336.173 85.4396 335.987 85.6343 335.771C85.8454 335.522 85.9158 335.185 86.1621 334.989C86.4084 334.794 86.6196 335.54 86.9891 334.989C87.3586 334.438 88.0624 334.989 87.8688 334.35L90.1034 332.821L91.0536 332.253C92.2149 331.773 94.0448 330.973 95.1181 330.475L95.9802 329.907C96.4895 329.61 97.0514 329.417 97.6342 329.338C98.5261 329.092 99.4018 328.789 100.256 328.432C100.607 328.219 101.001 328.088 101.409 328.048C101.817 328.008 102.228 328.06 102.614 328.201C102.719 328.201 102.93 328.201 103.089 328.201H104.074C105.34 327.967 106.635 327.937 107.91 328.112H108.878H109.863C110.813 328.26 111.77 328.355 112.731 328.396C113.701 328.735 114.647 329.139 115.564 329.605C117.335 330.482 119.006 331.555 120.543 332.803L120.666 333.674L120.772 334.385C121.382 334.959 121.909 335.617 122.338 336.34L122.619 336.891C122.936 337.513 123.218 338.135 123.499 338.757C123.587 338.917 123.499 339.165 123.693 339.272C124.073 339.44 124.443 339.63 124.801 339.841C125.083 340.09 124.397 340.498 124.977 340.836C125.276 341.014 125.294 341.511 125.382 341.867C125.664 342.707 125.847 343.578 125.927 344.461V345.456C125.699 346.54 125.048 348.744 124.502 350.361L123.992 351.818L123.64 352.885C122.649 353.835 121.72 354.85 120.86 355.923L119.998 356.332L119.276 356.67C118.659 357.476 117.93 358.188 117.112 358.785C116.479 359.211 114.666 360.739 114.262 361.113C113.857 361.486 112.661 362.303 112.854 362.588C113.048 362.872 111.394 363.156 110.725 363.494C110.056 363.832 107.206 366.817 104.69 368.505L102.279 369.891C99.2882 371.668 96.1738 373.197 93.0946 374.814L92.5492 375.098C91.863 375.329 92.338 375.987 93.5697 376.573C96.198 377.546 98.8835 378.353 101.611 378.99L103.282 379.292L104.25 379.47C105.196 379.343 106.155 379.343 107.1 379.47C107.593 379.594 109.335 379.47 109.775 379.47L110.144 379.612C110.602 379.808 110.76 378.972 111.271 379.434C111.373 379.471 111.485 379.471 111.587 379.434C111.869 379.346 114.279 378.99 114.561 378.972C114.842 378.955 115.018 378.795 115.247 378.795C116.373 378.884 117.499 377.746 118.661 378.795C119.505 378.534 120.362 378.321 121.229 378.155C122.338 377.906 125.224 376.964 124.995 376.378L125.98 377.124L126.561 377.568C127.159 377.355 128.32 377 129.165 376.751C130.009 376.502 132.878 375.578 133.81 375.454L134.408 375.081C135.077 374.672 135.693 375.258 135.71 375.187L136.238 373.606L139.652 373.446C139.977 373.488 140.3 373.548 140.619 373.623C140.866 373.623 141.71 372.664 142.379 372.699C143.801 372.417 145.188 371.976 146.514 371.384L147.482 371.1C148.141 370.757 148.869 370.569 149.611 370.549C149.945 370.549 150.332 370.122 150.737 369.998H150.965C151.3 369.998 151.757 369.714 152.004 369.181L152.795 369.785C152.795 369.785 153.534 369.269 153.992 369.145L154.361 369.038C154.957 369.036 155.55 368.946 156.121 368.772L156.367 368.345C156.503 368.144 156.711 368.004 156.948 367.954C157.792 367.954 159.059 367.954 159.411 367.528L160.15 366.568C161.399 366.195 162.666 365.769 162.948 365.626H163.229C163.828 365.626 164.496 365.751 164.549 364.951C164.744 364.87 164.954 364.828 165.165 364.827C166.027 364.827 166.625 364.702 166.924 363.885C167.048 363.441 167.47 364.009 167.523 363.974L168.103 363.512L171.622 361.983L172.731 361.752L173.716 361.557C174.613 361.113 176.109 360.42 177.042 360.029L177.816 359.549C178.133 359.335 178.942 360.082 178.907 359.122C178.907 358.962 179.751 358.749 180.226 358.571L180.754 358.358C181.605 358.135 182.435 357.838 183.235 357.47C183.974 357.114 186.895 355.923 187.968 355.355C189.652 354.78 191.367 354.305 193.106 353.933C193.847 353.548 194.611 353.21 195.393 352.92C195.869 352.814 197.311 352.049 197.734 351.961C198.463 351.995 199.185 352.127 199.88 352.351C200.109 352.351 200.391 352.351 199.669 352.049L199.863 351.339C199.986 350.912 200.215 350.805 200.637 350.93C201.059 351.054 201.341 351.285 201.376 351.25L202.801 349.899C203.966 350.076 205.142 350.177 206.32 350.201C206.109 350.201 206.003 349.81 206.496 349.615C207.542 349.248 208.612 348.957 209.698 348.744L210.156 348.424L210.666 348.051C211.813 347.897 212.925 347.548 213.956 347.02H216.138C216.388 346.8 216.684 346.64 217.005 346.554C217.325 346.468 217.661 346.457 217.986 346.523C218.408 346.718 219.499 346.523 219.323 345.918L220.396 345.776C220.854 345.776 221.241 345.492 221.681 345.776C221.874 345.776 223.106 345.136 224.408 344.497L225.481 344.586C226.056 344.75 226.645 344.857 227.241 344.905C227.779 344.717 228.288 344.454 228.754 344.124C229.248 343.84 229.766 343.602 230.302 343.413L230.672 343.288C231.229 343.391 231.761 343.602 232.238 343.91V343.217C232.238 343.217 232.889 343.04 233.258 343.022L234.385 342.933C235.284 342.811 236.195 342.811 237.094 342.933C237.267 343.112 237.462 343.267 237.675 343.395C237.723 343.344 237.757 343.281 237.772 343.212C237.788 343.143 237.784 343.071 237.763 343.004C237.763 342.844 237.657 342.258 237.763 342.222C238.276 342.376 238.763 342.61 239.206 342.915L239.346 341.991C239.592 341.907 239.858 341.907 240.103 341.991C240.508 342.418 240.684 341.991 240.965 341.902C241.247 341.813 241.458 342.204 241.722 342.24H242.003L243.341 341.689C244.374 341.289 245.458 341.037 246.56 340.943L247.247 340.552C247.562 340.339 247.932 340.226 248.311 340.226C248.69 340.226 249.061 340.339 249.376 340.552C249.478 340.588 249.59 340.588 249.692 340.552L250.66 339.485C252.015 339.859 252.912 340.214 252.684 340.249C252.455 340.285 251.857 340.534 252.349 340.64L252.49 340.818C252.93 341.298 253.088 340.729 253.352 340.712C253.616 340.694 253.88 340.356 254.091 340.214L254.689 339.859C255.798 339.556 256.449 339.61 256.027 339.965V340.161V340.303C256.136 340.417 256.273 340.502 256.424 340.548C256.575 340.595 256.735 340.602 256.889 340.569L256.977 340.427L257.54 339.343C258.684 339.343 259.986 339.165 260.443 339.094H260.654L261.464 339.379C262.179 339.213 262.884 339.006 263.575 338.757C263.927 338.615 265.106 338.988 265.335 338.934C265.563 338.881 266.513 338.934 266.672 338.828C266.83 338.721 267.481 338.472 267.728 338.597C268.216 338.814 268.742 338.929 269.276 338.934C270.254 338.658 271.213 338.314 272.144 337.904L272.813 338.01L274.255 338.241C275.629 337.827 277.066 337.67 278.496 337.779L279.393 337.868H279.886C280.559 337.701 281.254 337.647 281.945 337.708C283.061 337.648 284.166 337.451 285.235 337.122L285.763 337.477L286.308 337.833C286.78 337.78 287.242 337.66 287.681 337.477C289.035 338.224 290.601 337.477 291.991 337.886L292.466 338.028C292.959 338.312 293.505 338.437 293.681 338.295C294.395 338.057 295.166 338.057 295.88 338.295C296.672 338.615 300.437 339.29 302.496 339.77L304.255 340.249C304.994 340.445 305.716 340.783 306.49 340.996L307.37 341.245L309.516 343.022C310.031 343.434 310.518 343.88 310.977 344.355C310.977 344.497 310.977 345.101 310.977 345.314C310.977 345.527 312.173 345.776 312.49 345.847V346.629C312.846 346.771 313.228 346.834 313.61 346.816C313.992 346.797 314.366 346.697 314.707 346.523C315.323 346.167 317.452 346.914 317.821 346.931C318.581 346.852 319.349 346.906 320.091 347.091L320.742 346.594L320.848 346.505C321.255 346.476 321.66 346.422 322.062 346.345C322.824 346.355 323.583 346.433 324.332 346.576C324.595 346.576 325.229 346.914 325.422 346.931C325.616 346.949 327.499 346.931 329.153 346.825L330.648 346.914C331.076 347.02 331.523 347.02 331.95 346.914C332.52 346.712 333.14 346.712 333.71 346.914L334.238 347.233H336.208H336.683C337.141 347.233 337.845 347.233 338.003 347.358L338.443 347.891C338.822 347.585 339.222 347.306 339.639 347.056C339.938 346.878 341.276 347.66 341.892 347.802H343.018C343.552 347.702 344.093 347.643 344.636 347.624C344.953 347.624 346.396 347.82 346.959 347.891H347.557L348.296 347.98L350.496 348.317C351.29 348.332 352.085 348.278 352.871 348.158C353.364 348.158 354.982 348.282 355.792 348.158C356.601 348.033 359.751 348.993 361.317 348.993L362.636 349.402C363.375 349.65 363.745 348.797 364.396 349.242L364.853 349.508C365.432 349.647 366.034 349.647 366.613 349.508H366.894C367.457 349.419 368.197 349.117 368.214 350.023C368.214 350.023 368.865 350.201 368.971 350.023L369.587 349.49C370.314 349.637 371.027 349.852 371.716 350.13C372.138 350.308 373.475 349.864 373.721 349.988C373.968 350.112 375.076 350.468 375.27 350.326C375.463 350.183 376.044 350.006 375.938 350.326C375.833 350.645 377.258 350.326 377.698 350.326H378.138H379.475C380.761 350.321 382.025 350.665 383.135 351.321L383.751 350.717C384.454 350.023 384.806 350.894 385.352 350.859C385.655 350.792 385.968 350.791 386.271 350.855C386.574 350.92 386.861 351.048 387.111 351.232C387.419 351.156 387.704 351.003 387.938 350.788C388.185 350.574 389.698 351.036 390.314 351.125H390.93C391.528 351.125 392.196 350.965 392.689 351.516C392.831 351.569 392.987 351.569 393.129 351.516L393.78 350.468C394.623 350.79 395.441 351.176 396.226 351.623C397.274 351.702 398.327 351.702 399.375 351.623L399.78 351.925C400.466 352.423 400.695 351.712 401.135 351.925C401.575 352.138 402.384 352.423 402.56 352.28C403.176 351.783 403.598 352.405 404.108 352.28C404.625 352.261 405.139 352.371 405.604 352.6L406.044 352.76C407.11 352.689 408.18 352.689 409.246 352.76C410.302 352.76 413.363 353.151 413.715 353.258C414.067 353.364 414.929 353.4 415.211 353.524C415.77 353.568 416.333 353.532 416.883 353.418C417.706 353.54 418.493 353.844 419.188 354.306L419.839 353.489C420.788 353.796 421.758 354.034 422.742 354.2C423.85 354.395 427.141 354.786 427.58 354.928C428.12 355.025 428.67 355.055 429.217 355.017C429.498 355.017 430.765 355.195 431.416 355.319L431.856 355.604C432.472 356.012 432.877 356.474 433.774 355.87L434.108 355.639C434.948 355.775 435.754 356.07 436.484 356.51L436.783 356.919L437.363 357.718L439.774 357.541C440.161 357.541 441.358 357.541 441.393 357.683C441.52 357.914 441.703 358.11 441.924 358.253C442.145 358.396 442.398 358.481 442.66 358.5C443.275 358.5 444.314 359.726 443.909 359.549C443.431 359.332 442.918 359.205 442.396 359.176C442.308 359.264 442.044 359.833 442.29 360.029H442.554C443.469 360.029 443.328 360.597 443.381 361.095C443.434 361.592 442.712 361.841 443.381 362.374L443.715 362.676C443.728 363.407 443.687 364.138 443.592 364.862C443.592 365.449 441.674 365.555 441.34 365.591C441.006 365.626 439.58 365.591 439.035 365.591C438.49 365.591 436.29 365.218 435.727 365.289C435.164 365.36 433.176 364.809 432.63 364.844C431.905 364.773 431.174 364.773 430.449 364.844C430.044 365.022 428.355 364.258 427.246 364.169C426.138 364.08 422.355 363.796 421.246 363.689C420.138 363.583 416.971 362.89 416.566 362.748H416.232L413.803 362.996C411.182 362.623 408.331 362.197 407.434 362.037H406.625C405.869 362.053 405.117 361.927 404.408 361.663L403.95 361.432L401.645 361.717C401.152 361.717 399.41 361.344 398.918 361.415C398.425 361.486 396.578 360.917 395.856 360.846C394.593 360.818 393.33 360.871 392.073 361.006L391.862 360.81C391.405 360.384 391.018 360.81 390.613 360.704C390.186 360.585 389.751 360.502 389.311 360.455C388.765 360.455 388.202 360.455 387.657 360.455C387.111 360.455 386.689 360.011 386.443 360.117C385.475 360.562 384.683 359.922 383.716 360.117C383.166 360.188 382.611 360.188 382.062 360.117H381.586C381.043 360.008 380.508 359.859 379.985 359.673H379.545C379.286 359.755 379.011 359.776 378.742 359.733C378.474 359.689 378.219 359.584 377.997 359.424L377.874 359.318C377.014 359.571 376.129 359.726 375.235 359.78C374.152 359.639 373.092 359.352 372.085 358.927L369.534 358.82C368.302 358.82 364.537 358.429 363.886 358.34C363.235 358.251 361.141 357.896 360.666 357.789H360.226C359.487 357.789 358.783 358.091 357.974 357.789C357.164 357.487 356.443 358.003 355.739 357.523L355.035 357.043C354.051 357.109 353.063 357.109 352.079 357.043C351.393 357.043 348.56 356.954 347.293 356.865C346.026 356.776 342.631 356.51 342.279 356.563C341.683 356.567 341.091 356.483 340.519 356.314C340.22 356.208 338.619 356.652 337.616 356.723C336.128 356.547 334.653 356.274 333.199 355.906H328.607C324.068 355.906 319.722 355.799 318.947 355.675L318.367 356.243C318.244 356.385 317.733 356.368 317.469 356.243C317.205 356.119 316.801 355.568 316.308 356.012L315.763 356.528C315.261 357.086 314.99 357.817 315.006 358.571L314.584 359.016C314.584 359.104 314.724 359.371 314.76 359.549L314.848 360.011C314.529 359.894 314.181 359.894 313.862 360.011V360.117V360.366C313.913 360.887 313.795 361.411 313.528 361.859C313.264 362.41 311.768 363.725 311.03 363.636V364.276C311.004 364.541 310.919 364.797 310.782 365.024C310.645 365.252 310.459 365.446 310.238 365.591L310.097 365.697C310.082 366.15 310.117 366.603 310.203 367.048L309.516 367.332H309.34C309.2 367.51 308.777 368.025 308.39 368.452C307.639 368.926 306.811 369.263 305.944 369.447L305.768 369.554L305.575 369.643C305.327 369.932 305.104 370.241 304.906 370.567C304.695 370.904 303.956 371.544 303.428 371.171L303.323 372.113V372.504C303.205 372.657 303.056 372.782 302.886 372.871C302.716 372.96 302.529 373.011 302.337 373.019C301.519 373.117 300.716 373.314 299.944 373.606C299.047 373.925 296.285 374.992 295.686 375.152C294.395 375.407 293.091 375.591 291.78 375.703C290.795 375.791 287.311 376.502 286.15 376.644L285.094 376.413L284.425 376.253C283.704 376.253 282.384 376.396 281.522 376.396H280.73C279.939 376.396 279.129 376.396 278.337 376.396C278.197 376.396 277.986 376.396 277.898 376.396C277.423 376.093 277.176 375.489 276.279 376.005C275.98 376.165 275.276 375.649 274.607 375.614C273.446 375.614 272.496 374.69 271.211 374.832C271.211 374.832 271.071 374.618 271.018 374.512C270.823 374.266 270.668 373.99 270.56 373.694L270.42 373.055C269.892 373.197 269.575 373.055 269.716 372.877L269.575 372.664C269.364 372.344 269.1 372.042 268.854 371.722L268.291 370.478V370.14C268.15 369.785 267.833 368.985 267.552 368.363L267.323 367.794C267.066 367.297 266.848 366.78 266.672 366.248C266.452 365.27 266.294 364.279 266.197 363.281V362.73C266.286 362.205 266.465 361.7 266.725 361.237C267.145 360.908 267.592 360.617 268.062 360.366C268.565 360.049 268.968 359.592 269.223 359.051L269.469 358.731C269.751 358.34 270.631 358.5 270.648 357.772V357.398C271.046 357.554 271.475 357.609 271.898 357.558C272.444 357.346 272.974 357.09 273.481 356.794L273.886 356.652L274.291 356.51C274.818 356.51 275.258 356.172 275.258 355.923C275.258 355.675 275.54 354.911 275.892 354.911C276.244 354.911 277.211 354.822 277.088 354.697C276.965 354.573 276.807 354.271 276.912 354.182H277.018C277.174 354.146 277.337 354.146 277.493 354.182C278.83 354.466 279.252 353.56 280.009 352.973C280.766 352.387 280.59 352.476 280.959 353.08L281.382 353.755C281.557 353.347 281.839 353.08 281.997 353.169C282.156 353.258 282.754 353.169 282.684 353.045L282.578 352.956L281.997 352.387L285.041 351.019L286.079 350.574C286.399 350.4 286.754 350.303 287.117 350.29C287.909 350.615 288.773 350.713 289.616 350.574L290.109 350.414C290.468 350.499 290.841 350.499 291.2 350.414L291.305 350.308C291.446 350.183 291.552 349.917 291.657 349.917C292.753 349.8 293.833 349.562 294.877 349.206L295.862 348.993C297.024 348.868 298.642 348.637 299.469 348.495L300.12 348.264C300.666 348.051 300.912 347.82 301.493 348.264L301.88 348.531C302.102 348.394 302.351 348.309 302.61 348.281C302.869 348.254 303.13 348.284 303.376 348.371C303.622 348.566 304.22 347.909 304.343 347.713C304.466 347.518 305.469 347.713 305.997 347.713L306.208 347.233V347.127C306.402 346.985 306.085 346.842 305.522 346.771C304.674 346.604 303.801 346.604 302.953 346.771L302.443 346.434C301.975 346.107 301.466 345.844 300.93 345.652L300.455 345.51C299.828 345.481 299.201 345.571 298.607 345.776C298.185 345.972 295.563 345.261 293.522 345.261C291.481 345.261 285.78 345.261 285.358 345.083C284.936 344.905 283.722 345.652 283.423 345.776C283.123 345.901 281.417 345.474 280.572 345.492L279.815 345.652L278.988 345.847C277.919 345.94 276.856 346.094 275.804 346.309L275.1 346.007L274.783 345.865C274.537 345.545 274.273 345.705 274.203 346.256L273.34 346.025L272.513 345.812C271.396 345.993 270.267 346.082 269.135 346.078L268.308 346.629L268.027 346.807C266.939 346.583 265.827 346.505 264.719 346.576C263.628 346.576 260.883 347.429 260.83 347.305C260.756 347.206 260.649 347.138 260.529 347.115C260.408 347.092 260.284 347.115 260.179 347.18C259.915 347.358 258.983 347.678 258.42 348.033L258.261 347.909C257.505 347.358 256.818 347.713 256.097 347.909C255.573 347.763 255.02 347.763 254.496 347.909C253.739 348.069 251.1 348.495 250.343 348.655C249.18 348.871 247.988 348.871 246.824 348.655L246.437 349.33C246.279 349.615 245.558 349.739 245.065 349.81C244.572 349.881 243.956 349.81 243.411 349.81C243.194 349.815 242.985 349.89 242.813 350.023C242.579 350.275 242.282 350.458 241.954 350.555C241.626 350.652 241.279 350.659 240.948 350.574L240.121 350.432C238.759 350.893 237.365 351.249 235.951 351.498C234.385 351.783 229.018 353.062 227.364 353.418L225.851 353.702C224.755 353.767 223.695 354.116 222.772 354.715C222.596 354.821 222.395 354.877 222.191 354.875C221.734 354.289 221.258 354.786 220.907 354.875C219.889 355.299 218.816 355.574 217.722 355.692H216.824C215.945 356.215 214.998 356.61 214.009 356.865C212.886 357.158 211.791 357.55 210.737 358.038C210.156 358.305 208.15 358.802 207.657 358.962L201.446 361.095L199.212 361.859C198.932 361.91 198.663 362.012 198.42 362.161L197.839 362.712C197.108 362.932 196.397 363.212 195.71 363.547C195.376 363.725 193.951 363.991 193.599 364.151L193.335 364.382C193.134 364.605 192.885 364.776 192.607 364.884C192.329 364.992 192.03 365.033 191.734 365.004C191.379 365.043 191.037 365.159 190.731 365.342C190.315 365.623 189.866 365.85 189.393 366.017L187.44 366.373C185.962 367.277 184.422 368.073 182.83 368.754C181.662 369.285 180.523 369.879 179.417 370.531C179.083 370.727 177.657 371.029 177.358 371.171C176.479 371.514 175.621 371.912 174.789 372.362L174.174 372.735C173.981 372.844 173.761 372.893 173.54 372.877L172.872 372.735C172.308 373.037 170.408 373.854 168.666 374.512L166.907 374.796C166.907 374.796 166.801 374.796 166.731 374.903L165.675 375.329C164.592 375.691 163.534 376.125 162.508 376.627C161.98 376.929 159.358 377.373 158.285 377.693C157.212 378.013 154.009 379.47 153.182 379.808C152.355 380.145 148.977 380.98 147.534 381.318L146.461 381.887L145.564 382.367C144.645 382.445 143.741 382.642 142.872 382.953C142.414 383.149 140.004 383.699 138.754 384.002L137.716 384.375C136.766 384.712 135.763 384.25 134.848 384.908C134.268 385.317 133.089 385.192 132.244 385.352C130.485 385.672 128.725 386.027 126.965 386.383H126.825C125.73 386.564 124.625 386.682 123.517 386.738L122.004 386.898C121.018 387.005 120.068 387.165 119.1 387.289C118.133 387.414 117.059 387.005 116.197 387.662C116.197 387.662 115.845 387.662 115.722 387.662C114.966 388.018 114.385 386.792 113.417 387.574L113.03 387.911C111.917 387.771 110.827 387.478 109.793 387.04L109.001 387.396L108.279 387.733C107.37 387.442 106.418 387.31 105.464 387.342L104.743 386.916C104.203 386.798 103.646 386.798 103.106 386.916H102.561C102.421 386.717 102.236 386.554 102.022 386.439C101.809 386.325 101.571 386.263 101.329 386.258H100.907C100.59 386.258 100.238 386.649 99.9392 386.258C99.6401 385.867 98.6196 385.743 97.863 385.619C96.7461 385.351 95.6472 385.013 94.5726 384.606L94.2911 384.517C94.0272 384.517 93.8512 384.215 93.9392 384.055C94.0272 383.895 94.1855 383.433 94.1327 383.415C93.942 383.412 93.7559 383.475 93.6049 383.593C93.3292 383.722 93.029 383.789 92.7251 383.789C92.4213 383.789 92.1211 383.722 91.8454 383.593L91.4935 383.273L91.3175 383.095C91.2295 382.829 91.036 382.669 90.8952 382.74C90.7545 382.811 90.3674 382.598 90.2266 382.331C90.0858 382.064 89.5052 381.3 89.4524 381.46C89.3996 381.62 89.1181 381.976 88.9773 381.816C88.542 381.502 88.069 381.245 87.5697 381.052L87.1474 380.945C86.1093 380.643 85.9158 380.412 85.3879 379.168V378.937C85.3307 378.873 85.2577 378.826 85.1764 378.801C85.0952 378.776 85.0087 378.773 84.9261 378.793C84.8434 378.813 84.7675 378.855 84.7064 378.915C84.6453 378.974 84.6011 379.05 84.5785 379.132L84.1211 378.848L83.9627 378.741C83.1939 378.772 82.4318 378.898 81.6929 379.115L80.8131 379.434L79.0536 380.056C77.1005 380.714 74.866 381.443 74.0742 381.674C73.2824 381.905 70.4144 382.74 69.4642 382.953C68.5141 383.166 65.3821 383.877 64.5727 384.161C63.7634 384.446 61.1592 384.712 60.7897 384.89H60.473H59.2942C58.0801 385.139 56.1094 385.494 54.9305 385.69C53.7516 385.885 50.0566 386.347 49.4232 386.561H48.8777H48.2795C47.6109 386.561 46.8015 386.792 46.52 386.88C46.2385 386.969 43.1769 387.36 40.6608 387.751L38.303 387.431H37.6344C36.7641 387.526 35.9003 387.674 35.0479 387.876H34.3793C33.5875 387.876 32.7957 387.876 32.0039 387.876H31.2825C30.173 387.847 29.0673 387.734 27.9746 387.538L26.8837 387.805L26.0391 388L23.1711 387.289C22.2578 387.263 21.347 387.18 20.4438 387.04L19.8984 387.68C19.4007 387.721 18.9005 387.721 18.4028 387.68C17.4038 387.334 16.4231 386.937 15.4644 386.489L15.0245 386.347L14.3559 386.134C14.3559 386.614 14.004 386.934 13.74 386.863C13.4761 386.792 12.35 386.276 11.6462 385.956L11.4351 385.512L10.96 384.57C10.257 385.117 9.38214 385.388 8.49665 385.334L8.10955 384.588C8.04044 384.507 7.95338 384.444 7.85551 384.404C7.75764 384.364 7.65175 384.348 7.5465 384.357C6.35003 384.659 6.03331 383.628 5.22393 383.344C5.04798 383.344 4.85442 382.917 4.9248 382.829C4.99518 382.74 5.27671 382.42 4.76645 382.384C4.52632 382.403 4.28517 382.403 4.04504 382.384C3.78111 382.296 3.55237 382.065 3.28844 382.011C2.6902 382.011 2.65502 381.567 2.93654 381.354L3.60516 380.856C3.07331 380.662 2.56078 380.419 2.07438 380.127C1.74007 379.932 0.473208 379.648 0.314851 379.15L0.0861041 378.706C-0.19542 378.155 0.279659 377.746 0.561184 377.32C1.27395 377.665 1.84608 378.249 2.17994 378.972L2.61983 379.683L2.49666 379.523ZM88.7134 363.974C88.3263 363.743 88.2735 363.512 88.5902 363.458C89.3911 363.306 90.175 363.074 90.9304 362.765L91.036 362.214C91.1768 361.45 92.0917 361.468 92.5668 361.024C93.079 360.639 93.627 360.306 94.2031 360.029C94.7246 359.689 95.2651 359.381 95.8219 359.104C96.8798 358.772 97.7651 358.031 98.2852 357.043C98.4612 356.634 98.4964 356.314 99.1474 356.403C99.7984 356.492 99.7984 356.261 99.8336 355.87C99.8336 355.746 100.432 355.728 100.555 355.568C100.678 355.408 100.432 354.928 100.555 354.911L101.628 354.591C102.227 353.791 102.93 352.814 103.194 352.6C104.327 351.758 105.501 350.975 106.713 350.255L107.593 349.188L108.262 348.389C109.353 347.767 110.162 347.038 110.021 346.771L110.127 346.683L110.303 346.54C110.87 346.229 111.348 345.776 111.693 345.225C112.133 344.603 113.452 342.506 113.646 342.044C114.052 341.141 114.353 340.192 114.543 339.219C114.543 338.597 112.661 337.442 112.414 337.442C111.929 337.278 111.404 337.278 110.919 337.442C110.549 337.619 108.825 337.921 107.857 338.188C106.189 338.63 104.545 339.158 102.93 339.77C102.156 340.143 99.1474 342.009 97.8453 342.933L96.2794 343.288C96.1914 343.288 96.1914 343.519 96.0858 343.59C95.6283 343.964 94.7838 344.266 94.731 344.657C94.6078 345.545 93.5169 345.065 93.2178 345.563C93.2178 345.563 92.8659 345.563 92.8483 345.705C92.4612 346.771 91.1768 347.216 90.4905 348.051C89.8043 348.886 89.2765 349.828 88.5023 350.681C87.8173 351.389 87.2259 352.183 86.7427 353.045C86.3205 353.809 85.687 354.466 85.2823 355.266L84.9128 355.995C84.4218 356.53 84.0019 357.127 83.6636 357.772L83.7691 357.878C84.4378 358.447 84.297 358.713 83.382 358.873C83.2413 358.873 83.1709 359.442 83.2061 359.744V359.975C83.2571 360.519 83.2571 361.066 83.2061 361.61L82.6958 362.232L82.3087 362.676C82.3166 363.394 82.2096 364.108 81.992 364.791C81.8161 365.093 82.6958 365.964 82.7134 366.284C82.731 366.604 84.5609 365.84 85.5639 365.147L86.6724 364.773C87.1474 364.613 87.6577 364.507 88.1152 364.329L88.7134 363.974ZM307.44 358.82C308.197 358.607 308.496 358.34 308.073 358.234C307.651 358.127 306.525 357.701 306.314 357.825C306.103 357.949 305.082 358.109 304.818 358.269C304.554 358.429 303.305 358.091 302.689 358.18C302.073 358.269 300.12 358.802 299.452 358.82C298.783 358.838 297.288 359.815 296.883 359.709H296.513C296.267 359.709 296.091 360.117 295.827 360.206C295.563 360.295 295.317 359.957 295.176 360.029L294.595 360.295C294.063 360.644 293.463 360.874 292.836 360.97C291.658 361.318 290.51 361.764 289.405 362.303L288.42 362.552L287.469 362.801C287.082 363.316 286.502 363.583 286.185 363.405H285.974L285.481 363.529C285.006 363.796 284.038 364.382 283.335 364.844C282.631 365.307 280.097 366.426 279.64 366.71L279.164 366.888L278.725 367.084C278.515 367.333 278.286 367.565 278.038 367.777C278.038 367.883 277.915 368.061 278.038 368.132L278.144 368.256C278.505 368.372 278.876 368.45 279.252 368.488C280.1 368.594 280.957 368.594 281.804 368.488L282.296 368.363L282.895 368.221C283.784 368.132 284.68 368.132 285.569 368.221L286.343 368.061L286.924 367.937C287.277 368.344 287.743 368.635 288.261 368.772L288.42 368.665L289.176 368.079L291.745 367.919L292.326 367.812C292.977 367.688 293.681 367.297 293.821 368.274C293.821 368.274 294.472 368.399 294.56 368.274L295.018 367.83C295.423 367.297 295.88 366.941 296.056 367.066C296.232 367.19 296.478 367.51 296.302 367.581C296.126 367.652 296.038 367.759 296.865 367.581C297.692 367.403 299.346 366.248 299.399 366.568C299.452 366.888 299.944 367.35 300.332 367.013C300.887 366.479 301.475 365.981 302.091 365.52C302.373 365.395 303.252 365.129 303.182 364.951C303.112 364.773 304.22 363.903 304.836 363.458L305.117 362.854C305.276 362.516 305.452 362.019 305.751 361.93C306.384 361.77 306.472 361.539 306.578 361.041C306.683 360.544 307.387 360.082 307.44 359.602V358.82Z" fill="#E7CEC0"/>
<path d="M559.191 133.24C562.302 127.681 564.089 121.286 564.089 114.465C564.089 93.1825 546.84 75.9283 525.559 75.9283C524.223 75.9283 522.902 75.9974 521.598 76.1305C511.66 46.9767 484.064 26 451.553 26C421.165 26 395.065 44.3265 383.67 70.5246C374.467 64.11 363.286 60.3382 351.219 60.3382C344.103 60.3382 337.297 61.6571 331.019 64.0459C326.011 48.5815 311.508 37.3918 294.378 37.3918C278.488 37.3918 264.852 47.0161 258.961 60.7524C250.542 55.8219 240.749 52.982 230.288 52.982C206.65 52.982 186.382 67.4159 177.812 87.9513C176.201 87.8108 174.569 87.7368 172.921 87.7368C142.29 87.7368 117.459 112.572 117.459 143.207C117.459 144.062 117.485 144.913 117.524 145.761C87.3209 157.963 66 187.544 66 222.127C66 267.605 102.863 304.475 148.335 304.475H289.311H405.632H522.885C572.289 304.475 612.338 264.418 612.338 215.004C612.338 178.526 590.499 147.169 559.191 133.24Z" fill="#79AC69"/>
<path d="M559.191 133.24C562.302 127.681 564.089 121.286 564.089 114.465C564.089 93.1825 546.84 75.9283 525.559 75.9283C524.223 75.9283 522.902 75.9974 521.598 76.1305C511.66 46.9767 484.064 26 451.553 26C421.165 26 395.065 44.3265 383.67 70.5245C374.467 64.11 363.286 60.3382 351.219 60.3382C344.103 60.3382 337.297 61.6571 331.019 64.0459C326.011 48.5815 311.508 37.3918 294.378 37.3918C278.488 37.3918 264.852 47.0161 258.961 60.7524C250.542 55.8219 240.749 52.982 230.288 52.982C206.65 52.982 186.382 67.4159 177.812 87.9513C192.129 89.2012 204.887 95.8943 214.007 105.947C219.662 89.0508 235.603 76.8701 254.398 76.8701C277.924 76.8701 296.995 95.946 296.995 119.477C296.995 120.798 296.926 122.105 296.808 123.396C301.07 120.919 306.007 119.477 311.289 119.477C323.696 119.477 334.243 127.316 338.33 138.301C345.964 131.068 356.264 126.623 367.609 126.623C391.134 126.623 410.206 145.699 410.206 169.228C410.206 178.305 407.359 186.711 402.521 193.623C403.551 193.567 404.586 193.532 405.632 193.532C436.262 193.532 461.092 218.367 461.092 249.002C461.092 279.64 436.262 304.475 405.632 304.475H522.885C572.289 304.475 612.338 264.418 612.338 215.004C612.338 178.526 590.499 147.169 559.191 133.24Z" fill="#56774A"/>
<path d="M104.604 209.586C103.786 214.388 104.742 219.262 107.325 223.391C109.908 227.518 113.874 230.508 118.549 231.874C119.367 227.072 118.411 222.198 115.828 218.069C113.245 213.942 109.279 210.949 104.604 209.586ZM119.087 233.42L118.918 233.398C113.591 232.052 109.06 228.758 106.16 224.121C103.259 219.484 102.276 213.967 103.393 208.587C103.432 208.405 103.543 208.245 103.702 208.146C103.861 208.048 104.053 208.013 104.235 208.062C109.561 209.408 114.092 212.702 116.993 217.339C119.895 221.976 120.877 227.493 119.76 232.872C119.722 233.055 119.61 233.215 119.451 233.314C119.341 233.383 119.214 233.42 119.087 233.42Z" fill="#16151B"/>
<path d="M141.7 275.605C144.173 279.798 148.05 282.904 152.688 284.388C157.327 285.875 162.286 285.596 166.734 283.622C164.261 279.426 160.384 276.32 155.747 274.833C151.108 273.347 146.149 273.625 141.7 275.605ZM158.707 286.708C156.544 286.708 154.376 286.373 152.269 285.7C147.059 284.031 142.749 280.451 140.132 275.622C140.042 275.457 140.024 275.265 140.081 275.085C140.138 274.907 140.266 274.759 140.434 274.678C145.37 272.267 150.957 271.858 156.166 273.524C161.374 275.193 165.684 278.773 168.303 283.602C168.393 283.767 168.411 283.959 168.353 284.139C168.296 284.317 168.169 284.465 168 284.546C165.062 285.983 161.891 286.708 158.707 286.708Z" fill="#16151B"/>
<path d="M163.596 200.812C161.652 205.279 161.413 210.239 162.934 214.866C164.454 219.494 167.589 223.347 171.802 225.79C173.745 221.325 173.984 216.36 172.463 211.736C170.943 207.108 167.808 203.255 163.596 200.812ZM172.118 227.439L171.795 227.36C166.946 224.777 163.335 220.492 161.628 215.295C159.92 210.099 160.287 204.51 162.659 199.555C162.74 199.385 162.887 199.257 163.065 199.197C163.244 199.138 163.438 199.155 163.603 199.244C168.451 201.825 172.062 206.107 173.769 211.304C175.477 216.501 175.111 222.092 172.738 227.05C172.657 227.217 172.511 227.348 172.333 227.405L172.118 227.439Z" fill="#16151B"/>
<path d="M158.654 120.667C160.119 125.309 163.196 129.212 167.379 131.704C171.563 134.197 176.455 135.042 181.237 134.12C179.773 129.476 176.696 125.578 172.512 123.083C168.329 120.591 163.433 119.74 158.654 120.667ZM177.453 135.861C173.684 135.861 169.973 134.85 166.675 132.885C161.977 130.085 158.584 125.627 157.121 120.33C157.071 120.15 157.097 119.957 157.193 119.797C157.289 119.634 157.447 119.521 157.629 119.479C162.978 118.242 168.516 119.104 173.216 121.902C177.914 124.703 181.307 129.16 182.77 134.455C182.82 134.635 182.794 134.83 182.698 134.99C182.602 135.151 182.444 135.266 182.262 135.308C180.667 135.676 179.054 135.861 177.453 135.861Z" fill="#16151B"/>
<path d="M284.819 189.849C283.509 194.543 283.973 199.488 286.116 203.862C290.215 201.229 293.172 197.238 294.481 192.546C295.79 187.855 295.327 182.91 293.182 178.536C289.085 181.167 286.128 185.158 284.819 189.849ZM285.844 205.523L285.66 205.499C285.479 205.447 285.327 205.326 285.238 205.161C282.643 200.319 282.024 194.75 283.495 189.479C284.965 184.211 288.378 179.769 293.104 176.97C293.266 176.874 293.458 176.848 293.638 176.9C293.821 176.95 293.971 177.072 294.06 177.237C296.655 182.079 297.274 187.648 295.805 192.918C294.333 198.187 290.921 202.627 286.195 205.427L285.844 205.523Z" fill="#16151B"/>
<path d="M252.676 275.383C257.512 276.026 262.34 274.882 266.366 272.144C270.393 269.407 273.231 265.33 274.417 260.606C269.595 259.968 264.756 261.107 260.728 263.843C256.699 266.585 253.861 270.66 252.676 275.383ZM255.293 276.931C254.108 276.931 252.915 276.83 251.725 276.63C251.54 276.601 251.376 276.495 251.27 276.339C251.165 276.184 251.127 275.994 251.166 275.809C252.31 270.438 255.431 265.783 259.954 262.709C264.479 259.633 269.954 258.442 275.369 259.359C275.554 259.389 275.718 259.495 275.823 259.65C275.928 259.805 275.966 259.995 275.927 260.18C274.782 265.554 271.661 270.206 267.139 273.28C263.61 275.679 259.502 276.931 255.293 276.931Z" fill="#16151B"/>
<path d="M221.799 227.491C218.911 231.411 217.589 236.201 218.041 241.05C222.806 240.044 226.987 237.364 229.876 233.442C232.764 229.52 234.086 224.732 233.634 219.883C228.87 220.889 224.688 223.569 221.799 227.491ZM217.44 242.551C217.295 242.551 217.152 242.504 217.033 242.418C216.882 242.307 216.782 242.139 216.759 241.954C216.052 236.504 217.448 231.078 220.693 226.675C223.937 222.272 228.705 219.328 234.117 218.392C234.3 218.352 234.49 218.404 234.642 218.515C234.793 218.626 234.892 218.794 234.916 218.978C235.624 224.427 234.226 229.853 230.982 234.258C227.739 238.661 222.971 241.604 217.558 242.541L217.44 242.551Z" fill="#16151B"/>
<path d="M252.948 128.137C248.1 128.605 243.648 130.804 240.341 134.382C237.035 137.956 235.188 142.566 235.098 147.437C239.945 146.967 244.399 144.768 247.705 141.193C251.011 137.618 252.858 133.006 252.948 128.137ZM234.41 148.867C234.238 148.867 234.071 148.803 233.944 148.685C233.806 148.557 233.726 148.382 233.723 148.192C233.626 142.699 235.618 137.461 239.332 133.447C243.045 129.431 248.11 127.038 253.594 126.707C253.784 126.685 253.965 126.761 254.102 126.887C254.24 127.015 254.32 127.193 254.323 127.38C254.419 132.875 252.428 138.111 248.714 142.127C245.002 146.141 239.937 148.534 234.452 148.867H234.41Z" fill="#16151B"/>
<path d="M310.401 220.011C308.706 224.577 308.738 229.544 310.51 234.08C312.282 238.616 315.622 242.295 319.962 244.501C321.658 239.935 321.624 234.968 319.854 230.432C318.082 225.896 314.742 222.218 310.401 220.011ZM320.332 246.133L320.041 246.069C315.057 243.756 311.22 239.677 309.228 234.581C307.241 229.485 307.301 223.884 309.398 218.806C309.47 218.631 309.608 218.495 309.783 218.429C309.955 218.36 310.152 218.365 310.322 218.446C315.306 220.756 319.146 224.836 321.136 229.931C323.125 235.027 323.063 240.631 320.965 245.709C320.894 245.882 320.756 246.017 320.581 246.086L320.332 246.133Z" fill="#16151B"/>
<path d="M334.584 273.586C336.235 278.169 339.466 281.943 343.748 284.263C348.029 286.582 352.954 287.233 357.691 286.119C356.04 281.539 352.808 277.764 348.527 275.442C344.248 273.122 339.321 272.472 334.584 273.586ZM353.131 288.027C349.651 288.027 346.213 287.164 343.092 285.473C338.283 282.865 334.714 278.548 333.038 273.315C332.981 273.135 332.999 272.942 333.087 272.777C333.179 272.612 333.329 272.491 333.511 272.442C338.808 270.99 344.374 271.626 349.183 274.234C353.991 276.842 357.56 281.159 359.237 286.393C359.293 286.57 359.276 286.765 359.185 286.93C359.096 287.095 358.943 287.216 358.763 287.265C356.905 287.773 355.012 288.027 353.131 288.027Z" fill="#16151B"/>
<path d="M388.075 225.79C383.429 227.249 379.524 230.321 377.027 234.502C374.528 238.681 373.673 243.574 374.59 248.359C379.233 246.9 383.138 243.828 385.637 239.647C388.136 235.468 388.992 230.575 388.075 225.79ZM374.07 249.915L373.717 249.816C373.555 249.722 373.441 249.562 373.399 249.38C372.172 244.025 373.042 238.491 375.847 233.794C378.652 229.101 383.113 225.713 388.412 224.259C388.592 224.212 388.787 224.237 388.947 224.33C389.107 224.427 389.221 224.587 389.263 224.769C390.493 230.124 389.623 235.658 386.818 240.354C384.01 245.048 379.549 248.436 374.252 249.89L374.07 249.915Z" fill="#16151B"/>
<path d="M360.745 173.814C364.373 177.024 368.995 178.766 373.838 178.766H373.912C373.338 173.929 371.038 169.525 367.393 166.299C363.764 163.089 359.14 161.347 354.3 161.347H354.223C354.8 166.181 357.097 170.586 360.745 173.814ZM373.838 180.141C368.659 180.141 363.715 178.277 359.835 174.843H359.833C355.739 171.218 353.232 166.207 352.781 160.732C352.764 160.545 352.826 160.36 352.951 160.22C353.075 160.079 353.25 159.996 353.437 159.988C358.924 159.784 364.206 161.644 368.302 165.269C372.399 168.893 374.905 173.904 375.356 179.379C375.371 179.567 375.31 179.752 375.186 179.892C375.063 180.033 374.886 180.117 374.698 180.124C374.41 180.134 374.124 180.141 373.838 180.141Z" fill="#16151B"/>
<path d="M416.548 266.668C421.345 267.504 426.225 266.575 430.363 264.011C434.504 261.447 437.511 257.495 438.897 252.826C434.1 251.985 429.222 252.917 425.081 255.481C420.94 258.045 417.933 261.999 416.548 266.668ZM419.994 268.345C418.515 268.345 417.026 268.189 415.545 267.874C415.363 267.834 415.202 267.723 415.104 267.563C415.005 267.405 414.976 267.211 415.023 267.031C416.393 261.708 419.708 257.192 424.357 254.313C429.008 251.433 434.527 250.477 439.9 251.618C440.082 251.658 440.242 251.771 440.341 251.929C440.44 252.089 440.469 252.281 440.422 252.464C439.052 257.784 435.737 262.3 431.088 265.179C427.719 267.265 423.891 268.345 419.994 268.345Z" fill="#16151B"/>
<path d="M185.031 156.976C184.871 156.976 184.711 156.921 184.58 156.808C169.26 143.528 147.431 137.917 127.603 142.159C127.231 142.231 126.867 142.004 126.788 141.632C126.708 141.26 126.945 140.895 127.316 140.816C147.552 136.484 169.841 142.211 185.481 155.769C185.768 156.017 185.799 156.452 185.55 156.738C185.414 156.895 185.223 156.976 185.031 156.976Z" fill="#16151B"/>
<path d="M221.067 148.525C220.853 148.525 220.643 148.423 220.508 148.239C212.657 137.35 209.403 122.963 211.804 109.751C211.872 109.377 212.23 109.135 212.603 109.197C212.977 109.266 213.225 109.623 213.156 109.998C210.821 122.847 213.986 136.842 221.624 147.435C221.846 147.743 221.777 148.172 221.468 148.394C221.347 148.483 221.206 148.525 221.067 148.525Z" fill="#16151B"/>
<path d="M287.314 173.481C287.061 173.481 286.816 173.34 286.697 173.097C279.572 158.614 281.24 140.17 290.849 127.2C291.076 126.897 291.505 126.83 291.811 127.057C292.116 127.284 292.179 127.716 291.954 128.021C282.644 140.586 281.027 158.457 287.931 172.49C288.098 172.831 287.958 173.243 287.617 173.41L287.314 173.481Z" fill="#16151B"/>
<path d="M370.883 213.806L370.552 213.72C370.22 213.538 370.099 213.119 370.281 212.788C375.162 203.941 384.402 197.528 394.394 196.057C394.767 196.01 395.119 196.261 395.173 196.636C395.23 197.011 394.971 197.361 394.594 197.418C385.018 198.828 376.162 204.971 371.487 213.451C371.361 213.678 371.127 213.806 370.883 213.806Z" fill="#16151B"/>
<path d="M340.134 180.896C339.915 180.896 339.698 180.792 339.565 180.595C335.454 174.554 332.836 167.914 331.998 161.393C331.076 154.2 332.323 146.991 335.51 141.094C335.693 140.762 336.107 140.636 336.442 140.818C336.777 140.998 336.9 141.415 336.721 141.75C333.669 147.395 332.476 154.309 333.363 161.218C334.172 167.525 336.711 173.958 340.701 179.823C340.916 180.136 340.834 180.563 340.521 180.777C340.403 180.859 340.267 180.896 340.134 180.896Z" fill="#16151B"/>
<path d="M188.3 273.84C188.036 273.84 187.784 273.687 187.67 273.43C182.501 261.8 171.501 253.211 158.964 251.019C158.59 250.955 158.34 250.598 158.405 250.223C158.47 249.848 158.828 249.589 159.2 249.666C172.183 251.934 183.574 260.828 188.927 272.873C189.081 273.218 188.925 273.625 188.578 273.781L188.3 273.84Z" fill="#16151B"/>
<path d="M259.079 228.176C258.761 228.176 258.476 227.954 258.408 227.631C255.643 214.667 245.139 203.83 232.269 200.662C228.504 199.737 225.475 199.752 223.005 200.709C222.65 200.847 222.254 200.669 222.116 200.314C221.979 199.962 222.155 199.562 222.509 199.427C225.25 198.362 228.551 198.33 232.598 199.328C245.968 202.617 256.88 213.878 259.752 227.345C259.831 227.715 259.595 228.083 259.224 228.161L259.079 228.176Z" fill="#16151B"/>
<path d="M306.638 281.065L306.431 281.033C306.068 280.92 305.869 280.533 305.982 280.17C308.511 272.19 314.678 265.165 322.905 260.892C330.066 257.172 338.835 255.447 348.263 255.922C348.643 255.942 348.936 256.265 348.916 256.642C348.897 257.022 348.581 257.355 348.197 257.296C339.005 256.844 330.482 258.506 323.539 262.113C315.634 266.217 309.711 272.95 307.293 280.585C307.2 280.878 306.931 281.065 306.638 281.065Z" fill="#16151B"/>
<path d="M587.049 202.072C582.373 203.435 578.41 206.425 575.824 210.555C573.241 214.684 572.284 219.558 573.103 224.36C577.779 222.997 581.744 220.004 584.328 215.877C586.911 211.748 587.867 206.872 587.049 202.072ZM572.565 225.906C572.437 225.906 572.312 225.869 572.201 225.8C572.043 225.701 571.932 225.541 571.893 225.356C570.776 219.979 571.757 214.462 574.658 209.825C577.562 205.188 582.092 201.894 587.418 200.548C587.598 200.499 587.793 200.531 587.951 200.63C588.109 200.731 588.222 200.891 588.259 201.073C589.375 206.453 588.394 211.97 585.493 216.607C582.592 221.242 578.06 224.538 572.736 225.884L572.565 225.906Z" fill="#16151B"/>
<path d="M524.918 276.105C529.367 278.082 534.326 278.358 538.965 276.874C543.602 275.39 547.479 272.284 549.953 268.088C545.504 266.114 540.545 265.833 535.906 267.319C531.268 268.806 527.39 271.912 524.918 276.105ZM532.946 279.194C529.762 279.194 526.592 278.467 523.651 277.032C523.484 276.951 523.356 276.803 523.299 276.625C523.242 276.445 523.259 276.253 523.351 276.088C525.968 271.256 530.277 267.679 535.487 266.01C540.693 264.341 546.281 264.753 551.218 267.161C551.388 267.245 551.514 267.393 551.57 267.571C551.629 267.751 551.61 267.943 551.521 268.108C548.903 272.937 544.592 276.517 539.384 278.186C537.277 278.859 535.108 279.194 532.946 279.194Z" fill="#16151B"/>
<path d="M532.742 187.182C528.529 189.622 525.394 193.476 523.873 198.103C522.355 202.728 522.594 207.69 524.536 212.157C528.749 209.714 531.884 205.863 533.405 201.236C534.923 196.609 534.686 191.646 532.742 187.182ZM524.218 213.806L524.004 213.772C523.826 213.715 523.681 213.584 523.6 213.417C521.226 208.459 520.861 202.868 522.567 197.674C524.275 192.477 527.886 188.193 532.734 185.611C532.899 185.52 533.097 185.506 533.272 185.565C533.451 185.624 533.597 185.752 533.678 185.922C536.049 190.877 536.417 196.468 534.711 201.665C533.003 206.862 529.392 211.146 524.541 213.727L524.218 213.806Z" fill="#16151B"/>
<path d="M513.982 120.45C518.764 121.375 523.659 120.524 527.842 118.032C532.024 115.54 535.1 111.64 536.565 106.995C531.783 106.071 526.89 106.921 522.707 109.414C518.522 111.906 515.446 115.806 513.982 120.45ZM517.765 122.188C516.163 122.188 514.551 122.006 512.957 121.639C512.774 121.597 512.616 121.481 512.52 121.321C512.424 121.16 512.4 120.966 512.449 120.786C513.91 115.49 517.305 111.031 522.002 108.233C526.7 105.432 532.234 104.572 537.59 105.807C537.772 105.849 537.93 105.962 538.026 106.125C538.122 106.285 538.147 106.48 538.098 106.66C536.636 111.958 533.242 116.415 528.544 119.213C525.246 121.178 521.537 122.188 517.765 122.188Z" fill="#16151B"/>
<path d="M467.175 57.7842C465.033 62.1576 464.57 67.1028 465.879 71.7942C467.188 76.4855 470.143 80.4767 474.242 83.1071C476.386 78.7338 476.847 73.7885 475.541 69.0972C474.232 64.4083 471.274 60.4171 467.175 57.7842ZM474.513 84.7711L474.163 84.675C469.436 81.8745 466.024 77.4322 464.553 72.164C463.084 66.8958 463.702 61.3268 466.298 56.4826C466.387 56.3174 466.539 56.1966 466.719 56.1473C466.899 56.0956 467.094 56.1227 467.254 56.2164C471.982 59.0169 475.395 63.4617 476.864 68.7274C478.333 73.9956 477.715 79.5646 475.119 84.4088C475.031 84.5739 474.878 84.6947 474.698 84.744L474.513 84.7711Z" fill="#16151B"/>
<path d="M285.078 68.4464C286.263 73.1722 289.101 77.2473 293.129 79.9837C297.155 82.7225 301.991 83.8615 306.817 83.2254C305.632 78.5021 302.795 74.4246 298.767 71.6857C294.737 68.9493 289.902 67.8079 285.078 68.4464ZM304.202 84.7711C299.992 84.7711 295.884 83.5213 292.355 81.1201C287.833 78.046 284.712 73.3941 283.568 68.0199C283.529 67.8375 283.566 67.6476 283.672 67.4899C283.777 67.337 283.941 67.231 284.126 67.199C289.544 66.2844 295.016 67.4751 299.541 70.5492C304.062 73.6258 307.185 78.2777 308.328 83.6519C308.368 83.8344 308.331 84.0267 308.225 84.182C308.119 84.3348 307.956 84.4408 307.769 84.4729C306.581 84.6725 305.388 84.7711 304.202 84.7711Z" fill="#16151B"/>
<path d="M481.126 234.862C480.675 239.711 481.996 244.499 484.885 248.421C487.774 252.34 491.954 255.023 496.718 256.028C497.172 251.179 495.848 246.392 492.962 242.47C490.073 238.547 485.891 235.865 481.126 234.862ZM497.32 257.53L497.202 257.52C491.789 256.583 487.022 253.64 483.778 249.237C480.535 244.831 479.137 239.405 479.844 233.957C479.869 233.772 479.968 233.605 480.118 233.494C480.268 233.383 480.461 233.331 480.643 233.37C486.056 234.307 490.823 237.251 494.066 241.654C497.312 246.059 498.71 251.483 498 256.931C497.978 257.116 497.879 257.286 497.727 257.397C497.608 257.483 497.465 257.53 497.32 257.53Z" fill="#16151B"/>
<path d="M437.856 176.485C439.269 181.147 442.303 185.081 446.459 187.618C450.614 190.157 455.497 191.062 460.289 190.189C458.876 185.53 455.842 181.596 451.686 179.059C447.533 176.518 442.65 175.617 437.856 176.485ZM456.722 191.888C452.872 191.888 449.086 190.835 445.741 188.792C441.075 185.942 437.731 181.445 436.328 176.133C436.281 175.952 436.308 175.759 436.407 175.599C436.503 175.439 436.663 175.326 436.846 175.286C442.214 174.111 447.738 175.033 452.404 177.884C457.07 180.735 460.414 185.229 461.817 190.542C461.866 190.724 461.837 190.917 461.74 191.077C461.642 191.237 461.484 191.348 461.299 191.39C459.781 191.723 458.245 191.888 456.722 191.888Z" fill="#16151B"/>
<path d="M468.467 123.069C464.126 125.275 460.784 128.953 459.014 133.489C457.242 138.025 457.208 142.993 458.906 147.558C463.244 145.352 466.586 141.674 468.356 137.138C470.128 132.602 470.163 127.634 468.467 123.069ZM458.536 149.19L458.287 149.141C458.112 149.074 457.972 148.939 457.9 148.764C455.803 143.685 455.744 138.084 457.733 132.989C459.722 127.893 463.562 123.813 468.546 121.501C468.713 121.422 468.911 121.417 469.083 121.483C469.258 121.552 469.399 121.688 469.47 121.861C471.568 126.941 471.627 132.542 469.638 137.638C467.649 142.734 463.808 146.814 458.825 149.124L458.536 149.19Z" fill="#16151B"/>
<path d="M358.601 88.8684C354.147 90.8356 350.61 94.3239 348.596 98.7589C346.58 103.191 346.277 108.149 347.721 112.801C352.175 110.831 355.712 107.343 357.728 102.91C359.742 98.4754 360.045 93.5178 358.601 88.8684ZM347.302 114.411L347.018 114.349C346.848 114.27 346.715 114.127 346.654 113.95C344.835 108.765 345.081 103.167 347.344 98.1894C349.607 93.2096 353.661 89.3442 358.763 87.3079C358.938 87.2364 359.133 87.2413 359.303 87.3202C359.473 87.3966 359.606 87.5421 359.668 87.7171C361.487 92.9015 361.24 98.4976 358.978 103.48C356.715 108.457 352.658 112.323 347.558 114.361L347.302 114.411Z" fill="#16151B"/>
<path d="M409.607 113.035H409.684C414.527 113.035 419.149 111.292 422.774 108.085H422.777C426.422 104.855 428.722 100.453 429.299 95.6157H429.222C424.379 95.6157 419.757 97.3586 416.129 100.568C412.481 103.795 410.184 108.198 409.607 113.035ZM409.684 114.411C409.398 114.411 409.109 114.406 408.821 114.393C408.634 114.386 408.459 114.302 408.335 114.162C408.21 114.021 408.148 113.836 408.163 113.649C408.616 108.174 411.123 103.162 415.22 99.5404C419.314 95.914 424.586 94.0404 430.082 94.2574C430.27 94.2648 430.447 94.3486 430.57 94.4916C430.696 94.6296 430.758 94.8145 430.741 95.0019C430.289 100.477 427.783 105.489 423.686 109.113C419.807 112.547 414.862 114.411 409.684 114.411Z" fill="#16151B"/>
<path d="M487.961 150.827C487.761 150.827 487.562 150.741 487.426 150.571C487.187 150.277 487.234 149.843 487.53 149.604C506.003 134.663 530.903 128.726 554.131 133.706C554.503 133.787 554.74 134.152 554.659 134.524C554.58 134.897 554.217 135.126 553.843 135.052C531.014 130.151 506.548 135.994 488.395 150.674C488.267 150.778 488.114 150.827 487.961 150.827Z" fill="#16151B"/>
<path d="M492.467 108.452H492.415C492.038 108.425 491.752 108.097 491.779 107.718C492.146 102.543 494.35 97.1589 498.15 92.1496C501.673 87.5002 506.164 83.6273 510.095 80.3633C510.386 80.1193 510.82 80.1612 511.061 80.4545C511.305 80.7454 511.263 81.1793 510.972 81.4209C507.1 84.638 502.681 88.4468 499.245 92.9804C495.607 97.7777 493.499 102.908 493.149 107.814C493.125 108.176 492.824 108.452 492.467 108.452Z" fill="#16151B"/>
<path d="M402.472 103.859C402.097 103.859 401.791 103.559 401.784 103.184C401.599 92.3468 395.93 81.8104 386.988 75.6843C386.675 75.4698 386.596 75.0409 386.81 74.7278C387.025 74.4147 387.454 74.3334 387.767 74.5503C397.069 80.9229 402.965 91.8858 403.159 103.159C403.164 103.539 402.864 103.852 402.484 103.859H402.472Z" fill="#16151B"/>
<path d="M330.83 117.327C330.65 117.327 330.47 117.258 330.334 117.117C324.539 111.11 320.84 103.233 319.923 94.9353C319.003 86.6398 320.887 78.1446 325.227 71.0127C325.424 70.6873 325.848 70.5838 326.171 70.7834C326.496 70.9807 326.6 71.4047 326.4 71.7276C322.218 78.6007 320.403 86.7877 321.288 94.7849C322.173 102.782 325.737 110.373 331.325 116.161C331.589 116.435 331.579 116.871 331.308 117.135C331.172 117.263 331.002 117.327 330.83 117.327Z" fill="#16151B"/>
</svg>
