<svg width="112" height="66" viewBox="0 0 112 66" fill="none" xmlns="http://www.w3.org/2000/svg">
<path d="M12 6C12 9.31371 9.31371 12 6 12C2.68629 12 0 9.31371 0 6C0 2.68629 2.68629 0 6 0C9.31371 0 12 2.68629 12 6Z" fill="#E7CEC0"/>
<path d="M12 26C12 29.3137 9.31371 32 6 32C2.68629 32 0 29.3137 0 26C0 22.6863 2.68629 20 6 20C9.31371 20 12 22.6863 12 26Z" fill="#E7CEC0"/>
<path d="M12 46C12 49.3137 9.31371 52 6 52C2.68629 52 0 49.3137 0 46C0 42.6863 2.68629 40 6 40C9.31371 40 12 42.6863 12 46Z" fill="#E7CEC0"/>
<path d="M12 66C12 69.3137 9.31371 72 6 72C2.68629 72 0 69.3137 0 66C0 62.6863 2.68629 60 6 60C9.31371 60 12 62.6863 12 66Z" fill="#E7CEC0"/>
<path d="M32 6C32 9.31371 29.3137 12 26 12C22.6863 12 20 9.31371 20 6C20 2.68629 22.6863 0 26 0C29.3137 0 32 2.68629 32 6Z" fill="#E7CEC0"/>
<path d="M32 26C32 29.3137 29.3137 32 26 32C22.6863 32 20 29.3137 20 26C20 22.6863 22.6863 20 26 20C29.3137 20 32 22.6863 32 26Z" fill="#E7CEC0"/>
<path d="M32 46C32 49.3137 29.3137 52 26 52C22.6863 52 20 49.3137 20 46C20 42.6863 22.6863 40 26 40C29.3137 40 32 42.6863 32 46Z" fill="#E7CEC0"/>
<path d="M32 66C32 69.3137 29.3137 72 26 72C22.6863 72 20 69.3137 20 66C20 62.6863 22.6863 60 26 60C29.3137 60 32 62.6863 32 66Z" fill="#E7CEC0"/>
<path d="M52 6C52 9.31371 49.3137 12 46 12C42.6863 12 40 9.31371 40 6C40 2.68629 42.6863 0 46 0C49.3137 0 52 2.68629 52 6Z" fill="#E7CEC0"/>
<path d="M52 26C52 29.3137 49.3137 32 46 32C42.6863 32 40 29.3137 40 26C40 22.6863 42.6863 20 46 20C49.3137 20 52 22.6863 52 26Z" fill="#E7CEC0"/>
<path d="M52 46C52 49.3137 49.3137 52 46 52C42.6863 52 40 49.3137 40 46C40 42.6863 42.6863 40 46 40C49.3137 40 52 42.6863 52 46Z" fill="#E7CEC0"/>
<path d="M52 66C52 69.3137 49.3137 72 46 72C42.6863 72 40 69.3137 40 66C40 62.6863 42.6863 60 46 60C49.3137 60 52 62.6863 52 66Z" fill="#E7CEC0"/>
<path d="M72 6C72 9.31371 69.3137 12 66 12C62.6863 12 60 9.31371 60 6C60 2.68629 62.6863 0 66 0C69.3137 0 72 2.68629 72 6Z" fill="#E7CEC0"/>
<path d="M72 26C72 29.3137 69.3137 32 66 32C62.6863 32 60 29.3137 60 26C60 22.6863 62.6863 20 66 20C69.3137 20 72 22.6863 72 26Z" fill="#E7CEC0"/>
<path d="M72 46C72 49.3137 69.3137 52 66 52C62.6863 52 60 49.3137 60 46C60 42.6863 62.6863 40 66 40C69.3137 40 72 42.6863 72 46Z" fill="#E7CEC0"/>
<path d="M72 66C72 69.3137 69.3137 72 66 72C62.6863 72 60 69.3137 60 66C60 62.6863 62.6863 60 66 60C69.3137 60 72 62.6863 72 66Z" fill="#E7CEC0"/>
<path d="M92 6C92 9.31371 89.3137 12 86 12C82.6863 12 80 9.31371 80 6C80 2.68629 82.6863 0 86 0C89.3137 0 92 2.68629 92 6Z" fill="#E7CEC0"/>
<path d="M92 26C92 29.3137 89.3137 32 86 32C82.6863 32 80 29.3137 80 26C80 22.6863 82.6863 20 86 20C89.3137 20 92 22.6863 92 26Z" fill="#E7CEC0"/>
<path d="M92 46C92 49.3137 89.3137 52 86 52C82.6863 52 80 49.3137 80 46C80 42.6863 82.6863 40 86 40C89.3137 40 92 42.6863 92 46Z" fill="#E7CEC0"/>
<path d="M92 66C92 69.3137 89.3137 72 86 72C82.6863 72 80 69.3137 80 66C80 62.6863 82.6863 60 86 60C89.3137 60 92 62.6863 92 66Z" fill="#E7CEC0"/>
<path d="M112 6C112 9.31371 109.314 12 106 12C102.686 12 100 9.31371 100 6C100 2.68629 102.686 0 106 0C109.314 0 112 2.68629 112 6Z" fill="#E7CEC0"/>
<path d="M112 26C112 29.3137 109.314 32 106 32C102.686 32 100 29.3137 100 26C100 22.6863 102.686 20 106 20C109.314 20 112 22.6863 112 26Z" fill="#E7CEC0"/>
<path d="M112 46C112 49.3137 109.314 52 106 52C102.686 52 100 49.3137 100 46C100 42.6863 102.686 40 106 40C109.314 40 112 42.6863 112 46Z" fill="#E7CEC0"/>
<path d="M112 66C112 69.3137 109.314 72 106 72C102.686 72 100 69.3137 100 66C100 62.6863 102.686 60 106 60C109.314 60 112 62.6863 112 66Z" fill="#E7CEC0"/>
</svg>
