<svg width="1156" height="572" viewBox="0 0 1156 572" fill="none" xmlns="http://www.w3.org/2000/svg">
<rect width="1156" height="572" fill="#719A5B"/>
<path opacity="0.66" d="M910.721 339.039C917.121 375.039 934.055 385.706 941.721 386.539C944.121 386.539 944.055 374.206 943.721 368.039C938.521 356.439 930.888 315.539 927.721 296.539C927.388 293.706 926.921 280.639 927.721 251.039C928.521 221.439 943.388 210.706 950.721 209.039C955.121 213.039 950.555 226.706 947.721 233.039C932.521 259.839 937.388 297.872 941.721 313.539L949.221 290.539C953.221 252.939 956.221 240.539 957.221 239.039C969.621 204.239 995.055 200.206 1006.22 202.539C1035.02 202.139 1005.89 282.706 987.721 323.039C1018.92 330.639 1029.72 248.206 1031.22 206.039C1079.22 210.539 1082.72 261.039 1083.22 288.039C1083.62 309.639 1064.05 314.039 1054.22 313.539C1031.02 313.939 1012.55 329.706 1006.22 337.539C1013.02 347.539 1028.72 343.706 1035.72 340.539L1102.22 302.039C1108.62 308.039 1110.89 314.872 1111.22 317.539C1123.62 359.139 1092.39 366.872 1075.22 365.539C1035.22 358.339 1022.89 364.206 1021.72 368.039C1056.92 404.039 1100.05 390.039 1117.22 378.539C1128.42 382.539 1125.22 396.872 1122.22 403.539C1067.82 471.539 1016.55 448.872 997.721 429.039C1003.72 439.439 1004.89 460.706 1004.72 470.039C1002.72 508.839 975.221 535.206 961.721 543.539L983.721 463.539V446.039C983.055 437.039 976.721 421.339 956.721 430.539C936.721 439.739 918.721 431.372 912.221 426.039C859.021 376.439 861.388 327.039 869.221 308.539C880.388 303.706 904.321 303.039 910.721 339.039Z" fill="#BBC98D"/>
<path opacity="0.73" d="M190.938 8.34779C255.461 112.845 239.411 181.221 223.321 202.347C223.439 204.953 219.716 209.854 217.84 211.979C202.141 216.765 157.077 224.912 102.404 219.21C34.0639 212.082 19.7852 176.407 20.1152 174.352C20.4453 172.297 138.391 183.315 150.6 182.358C162.809 181.401 208.344 198.124 209.188 198.086L215.934 197.783C214.614 196.618 199.076 187.442 147.485 160.056C95.8933 132.67 91.3566 86.2746 95.5372 66.5003C97.0769 70.6748 136.117 85.758 155.444 92.7778C159.814 92.2549 171.796 96.259 177.24 98.3265C197.9 106.783 206.514 138.631 205.377 160.309C204.466 177.651 214.174 189.973 219.142 193.966C218.908 188.753 215.685 167.19 214.103 157.06L190.938 8.34779Z" fill="#F1C8C8"/>
</svg>
