<svg width="1156" height="310" viewBox="0 0 1156 310" fill="none" xmlns="http://www.w3.org/2000/svg">
<g clip-path="url(#clip0_46_6)">
<rect width="1156" height="310" fill="#658C4A"/>
<path d="M591.716 314.628L651.738 210.667C659.47 197.275 676.595 192.686 689.987 200.418L769.699 246.44C783.092 254.172 800.216 249.584 807.948 236.192L867.97 132.23" stroke="#E7CEC0" stroke-width="16" stroke-linecap="round"/>
<path d="M661.716 284.628L721.738 180.667C729.47 167.275 746.595 162.686 759.987 170.418L839.699 216.44C853.092 224.172 870.216 219.584 877.948 206.192L937.97 102.23" stroke="#E7CEC0" stroke-width="16" stroke-linecap="round"/>
<path d="M322 250C322 253.314 319.314 256 316 256C312.686 256 310 253.314 310 250C310 246.686 312.686 244 316 244C319.314 244 322 246.686 322 250Z" fill="#E7CEC0"/>
<path d="M322 270C322 273.314 319.314 276 316 276C312.686 276 310 273.314 310 270C310 266.686 312.686 264 316 264C319.314 264 322 266.686 322 270Z" fill="#E7CEC0"/>
<path d="M322 290C322 293.314 319.314 296 316 296C312.686 296 310 293.314 310 290C310 286.686 312.686 284 316 284C319.314 284 322 286.686 322 290Z" fill="#E7CEC0"/>
<path d="M322 310C322 313.314 319.314 316 316 316C312.686 316 310 313.314 310 310C310 306.686 312.686 304 316 304C319.314 304 322 306.686 322 310Z" fill="#E7CEC0"/>
<path d="M342 250C342 253.314 339.314 256 336 256C332.686 256 330 253.314 330 250C330 246.686 332.686 244 336 244C339.314 244 342 246.686 342 250Z" fill="#E7CEC0"/>
<path d="M342 270C342 273.314 339.314 276 336 276C332.686 276 330 273.314 330 270C330 266.686 332.686 264 336 264C339.314 264 342 266.686 342 270Z" fill="#E7CEC0"/>
<path d="M342 290C342 293.314 339.314 296 336 296C332.686 296 330 293.314 330 290C330 286.686 332.686 284 336 284C339.314 284 342 286.686 342 290Z" fill="#E7CEC0"/>
<path d="M342 310C342 313.314 339.314 316 336 316C332.686 316 330 313.314 330 310C330 306.686 332.686 304 336 304C339.314 304 342 306.686 342 310Z" fill="#E7CEC0"/>
<path d="M362 250C362 253.314 359.314 256 356 256C352.686 256 350 253.314 350 250C350 246.686 352.686 244 356 244C359.314 244 362 246.686 362 250Z" fill="#E7CEC0"/>
<path d="M362 270C362 273.314 359.314 276 356 276C352.686 276 350 273.314 350 270C350 266.686 352.686 264 356 264C359.314 264 362 266.686 362 270Z" fill="#E7CEC0"/>
<path d="M362 290C362 293.314 359.314 296 356 296C352.686 296 350 293.314 350 290C350 286.686 352.686 284 356 284C359.314 284 362 286.686 362 290Z" fill="#E7CEC0"/>
<path d="M362 310C362 313.314 359.314 316 356 316C352.686 316 350 313.314 350 310C350 306.686 352.686 304 356 304C359.314 304 362 306.686 362 310Z" fill="#E7CEC0"/>
<path d="M382 250C382 253.314 379.314 256 376 256C372.686 256 370 253.314 370 250C370 246.686 372.686 244 376 244C379.314 244 382 246.686 382 250Z" fill="#E7CEC0"/>
<path d="M382 270C382 273.314 379.314 276 376 276C372.686 276 370 273.314 370 270C370 266.686 372.686 264 376 264C379.314 264 382 266.686 382 270Z" fill="#E7CEC0"/>
<path d="M382 290C382 293.314 379.314 296 376 296C372.686 296 370 293.314 370 290C370 286.686 372.686 284 376 284C379.314 284 382 286.686 382 290Z" fill="#E7CEC0"/>
<path d="M382 310C382 313.314 379.314 316 376 316C372.686 316 370 313.314 370 310C370 306.686 372.686 304 376 304C379.314 304 382 306.686 382 310Z" fill="#E7CEC0"/>
<path d="M402 250C402 253.314 399.314 256 396 256C392.686 256 390 253.314 390 250C390 246.686 392.686 244 396 244C399.314 244 402 246.686 402 250Z" fill="#E7CEC0"/>
<path d="M402 270C402 273.314 399.314 276 396 276C392.686 276 390 273.314 390 270C390 266.686 392.686 264 396 264C399.314 264 402 266.686 402 270Z" fill="#E7CEC0"/>
<path d="M402 290C402 293.314 399.314 296 396 296C392.686 296 390 293.314 390 290C390 286.686 392.686 284 396 284C399.314 284 402 286.686 402 290Z" fill="#E7CEC0"/>
<path d="M402 310C402 313.314 399.314 316 396 316C392.686 316 390 313.314 390 310C390 306.686 392.686 304 396 304C399.314 304 402 306.686 402 310Z" fill="#E7CEC0"/>
<path d="M422 250C422 253.314 419.314 256 416 256C412.686 256 410 253.314 410 250C410 246.686 412.686 244 416 244C419.314 244 422 246.686 422 250Z" fill="#E7CEC0"/>
<path d="M422 270C422 273.314 419.314 276 416 276C412.686 276 410 273.314 410 270C410 266.686 412.686 264 416 264C419.314 264 422 266.686 422 270Z" fill="#E7CEC0"/>
<path d="M422 290C422 293.314 419.314 296 416 296C412.686 296 410 293.314 410 290C410 286.686 412.686 284 416 284C419.314 284 422 286.686 422 290Z" fill="#E7CEC0"/>
<path d="M422 310C422 313.314 419.314 316 416 316C412.686 316 410 313.314 410 310C410 306.686 412.686 304 416 304C419.314 304 422 306.686 422 310Z" fill="#E7CEC0"/>
<rect x="501.313" y="35.5312" width="161" height="56" rx="28" transform="rotate(-33.2005 501.313 35.5312)" fill="#E7CEC0"/>
<circle cx="1127.5" cy="48.5" r="181.5" fill="#E7CEC0"/>
<rect width="260" height="310" fill="#E7CEC0"/>
</g>
<defs>
<clipPath id="clip0_46_6">
<rect width="1156" height="310" fill="white"/>
</clipPath>
</defs>
</svg>
