<svg width="42" height="38" viewBox="0 0 42 38" fill="none" xmlns="http://www.w3.org/2000/svg">
<path d="M20.9996 5.69787C18.9778 3.71153 16.2579 2.59607 13.4218 2.59607C10.5479 2.59607 7.79332 3.74144 5.76355 5.77771C3.73404 7.81372 2.59525 10.5735 2.59525 13.4496C2.59525 16.3256 3.73404 19.0854 5.76355 21.1214L7.38627 22.7494L19.2965 34.6977C19.7477 35.1503 20.3605 35.4047 20.9996 35.4047C21.6387 35.4047 22.2515 35.1503 22.7027 34.6977L34.6129 22.7494L36.2352 21.1218C36.2354 21.1217 36.2355 21.1216 36.2356 21.1214C37.2408 20.1134 38.0377 18.9171 38.5813 17.6009C39.125 16.2846 39.4047 14.874 39.4047 13.4496C39.4047 12.0252 39.125 10.6145 38.5813 9.29821C38.0376 7.98187 37.2406 6.78538 36.2352 5.77731C35.2305 4.76913 34.0373 3.96894 32.7235 3.42281C31.4093 2.87652 30.0004 2.59525 28.5774 2.59525C27.1544 2.59525 25.7455 2.87652 24.4313 3.42281C23.1522 3.95452 21.9874 4.72704 20.9996 5.69787Z" fill="#719A5B" stroke="#BBC98D" stroke-width="4.80949" stroke-linecap="round" stroke-linejoin="round"/>
</svg>
