<svg width="254" height="254" viewBox="0 0 254 254" fill="none" xmlns="http://www.w3.org/2000/svg">
<path d="M114 63.3333V31.6667C114 22.8 117.061 15.3056 123.183 9.18333C129.306 3.06111 136.8 0 145.667 0H177.333V31.6667C177.333 40.5333 174.272 48.0278 168.15 54.15C162.028 60.2722 154.533 63.3333 145.667 63.3333H114ZM44.3333 139.333C32.0889 139.333 21.6389 135.006 12.9833 126.35C4.32778 117.694 0 107.244 0 95V50.6667H44.3333C56.5778 50.6667 67.0278 54.9944 75.6833 63.65C84.3389 72.3056 88.6667 82.7556 88.6667 95V139.333H44.3333ZM177.333 253.333C169.1 253.333 161.236 252.067 153.742 249.533C146.247 247 139.439 243.517 133.317 239.083L122.867 249.533C120.544 251.856 117.589 253.017 114 253.017C110.411 253.017 107.456 251.856 105.133 249.533C102.811 247.211 101.65 244.256 101.65 240.667C101.65 237.078 102.811 234.122 105.133 231.8L115.583 221.35C111.15 215.228 107.667 208.419 105.133 200.925C102.6 193.431 101.333 185.567 101.333 177.333C101.333 156.222 108.722 138.225 123.5 123.342C138.278 108.458 156.222 101.017 177.333 101.017H253.65V177.333C253.65 198.444 246.208 216.389 231.325 231.167C216.442 245.944 198.444 253.333 177.333 253.333ZM177.333 228C191.478 228 203.406 223.039 213.117 213.117C222.828 203.194 227.683 191.267 227.683 177.333V126.667H177.333C163.4 126.667 151.472 131.575 141.55 141.392C131.628 151.208 126.667 163.189 126.667 177.333C126.667 182.189 127.247 186.781 128.408 191.108C129.569 195.436 131.311 199.5 133.633 203.3L168.467 168.467C170.789 166.144 173.744 164.983 177.333 164.983C180.922 164.983 183.878 166.144 186.2 168.467C188.522 170.789 189.683 173.744 189.683 177.333C189.683 180.922 188.522 183.878 186.2 186.2L151.367 221.033C155.167 223.356 159.231 225.097 163.558 226.258C167.886 227.419 172.478 228 177.333 228Z" fill="#BBC98D"/>
</svg>
