<svg width="54" height="49" viewBox="0 0 54 49" fill="none" xmlns="http://www.w3.org/2000/svg">
<mask id="mask0_5_64" style="mask-type:alpha" maskUnits="userSpaceOnUse" x="0" y="0" width="54" height="49">
<path d="M45.0727 28.6092L47.3035 26.388C47.3036 26.3879 47.3038 26.3878 47.3039 26.3876C48.6032 25.0944 49.6345 23.5585 50.3384 21.8672C51.0423 20.1757 51.4047 18.3624 51.4047 16.5308C51.4047 14.6993 51.0423 12.8859 50.3384 11.1944C49.6346 9.50333 48.6035 7.9675 47.3043 6.67438C46.0054 5.38051 44.4637 4.35467 42.7677 3.65496C41.0717 2.95526 39.2542 2.59525 37.4189 2.59525C35.5837 2.59525 33.7662 2.95526 32.0702 3.65496C30.3743 4.35459 28.8328 5.3803 27.534 6.67398C27.5338 6.67411 27.5337 6.67425 27.5336 6.67438L26.9994 7.2062L26.4649 6.67398C23.8415 4.06193 20.2855 2.59637 16.5799 2.59637C12.8743 2.59637 9.31841 4.06193 6.69497 6.67398C4.07119 9.28638 2.59525 12.8318 2.59525 16.5308C2.59525 20.2298 4.07119 23.7752 6.69497 26.3876L8.92622 28.6092L25.3027 44.9146C26.241 45.8488 27.7579 45.8488 28.6961 44.9146L45.0727 28.6092Z" fill="#D9D9D9" stroke="#348E2B" stroke-width="4.80949" stroke-linecap="round" stroke-linejoin="round"/>
</mask>
<g mask="url(#mask0_5_64)">
<mask id="path-2-outside-1_5_64" maskUnits="userSpaceOnUse" x="17.1253" y="11.6246" width="18" height="23" fill="black">
<rect fill="white" x="17.1253" y="11.6246" width="18" height="23"/>
<path fill-rule="evenodd" clip-rule="evenodd" d="M26.3128 31.7511C29.955 30.3097 32.5003 27.018 32.5003 23.1878C32.5003 19.3577 29.955 16.066 26.3128 14.6246C22.6706 16.066 20.1253 19.3577 20.1253 23.1878C20.1253 27.018 22.6706 30.3097 26.3128 31.7511Z"/>
</mask>
<path fill-rule="evenodd" clip-rule="evenodd" d="M26.3128 31.7511C29.955 30.3097 32.5003 27.018 32.5003 23.1878C32.5003 19.3577 29.955 16.066 26.3128 14.6246C22.6706 16.066 20.1253 19.3577 20.1253 23.1878C20.1253 27.018 22.6706 30.3097 26.3128 31.7511Z" fill="#F1C8C8"/>
<path d="M26.3128 31.7511L25.4279 33.9871L26.3128 34.3373L27.1977 33.9871L26.3128 31.7511ZM26.3128 14.6246L27.1977 12.3886L26.3128 12.0384L25.4279 12.3886L26.3128 14.6246ZM30.0956 23.1878C30.0956 25.8886 28.2933 28.3811 25.4279 29.515L27.1977 33.9871C31.6168 32.2383 34.9051 28.1474 34.9051 23.1878H30.0956ZM25.4279 16.8606C28.2933 17.9946 30.0956 20.4871 30.0956 23.1878H34.9051C34.9051 18.2283 31.6168 14.1374 27.1977 12.3886L25.4279 16.8606ZM22.53 23.1878C22.53 20.4871 24.3323 17.9946 27.1977 16.8606L25.4279 12.3886C21.0089 14.1374 17.7205 18.2283 17.7205 23.1878H22.53ZM27.1977 29.515C24.3323 28.3811 22.53 25.8886 22.53 23.1878H17.7205C17.7205 28.1474 21.0089 32.2383 25.4279 33.9871L27.1977 29.515Z" fill="#F9FCF8" mask="url(#path-2-outside-1_5_64)"/>
<mask id="path-4-outside-2_5_64" maskUnits="userSpaceOnUse" x="14.6434" y="11.122" width="39.1506" height="42.8109" fill="black">
<rect fill="white" x="14.6434" y="11.122" width="39.1506" height="42.8109"/>
<path fill-rule="evenodd" clip-rule="evenodd" d="M41.3962 19.9282C44.9786 24.8099 45.5512 31.5659 42.3138 37.1733C39.0766 42.7803 32.9399 45.6624 26.9213 45.0013C23.339 40.1195 22.7663 33.3636 26.0037 27.7562C29.241 22.1492 35.3777 19.2671 41.3962 19.9282Z"/>
</mask>
<path fill-rule="evenodd" clip-rule="evenodd" d="M41.3962 19.9282C44.9786 24.8099 45.5512 31.5659 42.3138 37.1733C39.0766 42.7803 32.9399 45.6624 26.9213 45.0013C23.339 40.1195 22.7663 33.3636 26.0037 27.7562C29.241 22.1492 35.3777 19.2671 41.3962 19.9282Z" fill="#F1C8C8"/>
<path d="M41.3962 19.9282L43.335 18.5055L42.7096 17.6533L41.6588 17.5379L41.3962 19.9282ZM26.9213 45.0013L24.9826 46.424L25.608 47.2762L26.6587 47.3916L26.9213 45.0013ZM39.4575 21.3509C42.4921 25.4862 42.9778 31.2136 40.2312 35.9709L44.3964 38.3756C48.1246 31.9182 47.4651 24.1337 43.335 18.5055L39.4575 21.3509ZM40.2312 35.9709C37.4848 40.7279 32.2821 43.1709 27.1839 42.6109L26.6587 47.3916C33.5976 48.1539 40.6684 44.8327 44.3964 38.3756L40.2312 35.9709ZM28.86 43.5786C25.8255 39.4433 25.3397 33.7158 28.0863 28.9586L23.9212 26.5538C20.193 33.0113 20.8524 40.7958 24.9826 46.424L28.86 43.5786ZM28.0863 28.9586C30.8328 24.2016 36.0354 21.7585 41.1337 22.3186L41.6588 17.5379C34.7199 16.7756 27.6492 20.0968 23.9212 26.5538L28.0863 28.9586Z" fill="#F9FCF8" mask="url(#path-4-outside-2_5_64)"/>
<mask id="path-6-outside-3_5_64" maskUnits="userSpaceOnUse" x="2.18995" y="13.3384" width="35.9278" height="38.0129" fill="black">
<rect fill="white" x="2.18995" y="13.3384" width="35.9278" height="38.0129"/>
<path fill-rule="evenodd" clip-rule="evenodd" d="M26.345 43.0721C29.7956 38.472 30.0262 31.957 26.4766 26.9936C23.533 22.8778 18.7396 20.8771 14.0701 21.3281C10.6195 25.9282 10.3888 32.4431 13.9385 37.4065C16.882 41.5224 21.6755 43.5231 26.345 43.0721Z"/>
</mask>
<path fill-rule="evenodd" clip-rule="evenodd" d="M26.345 43.0721C29.7956 38.472 30.0262 31.957 26.4766 26.9936C23.533 22.8778 18.7396 20.8771 14.0701 21.3281C10.6195 25.9282 10.3888 32.4431 13.9385 37.4065C16.882 41.5224 21.6755 43.5231 26.345 43.0721Z" fill="#F1C8C8"/>
<path d="M26.345 43.0721L26.5762 45.4657L27.6321 45.3637L28.2687 44.5151L26.345 43.0721ZM14.0701 21.3281L13.8389 18.9344L12.7829 19.0364L12.1464 19.8851L14.0701 21.3281ZM24.5206 28.3925C27.4494 32.4878 27.2538 37.853 24.4213 41.6291L28.2687 44.5151C32.3374 39.0909 32.603 31.4261 28.4326 25.5948L24.5206 28.3925ZM14.3012 23.7217C18.1444 23.3505 22.0925 24.9974 24.5206 28.3925L28.4326 25.5948C24.9736 20.7582 19.3347 18.4037 13.8389 18.9344L14.3012 23.7217ZM15.8945 36.0076C12.9656 31.9123 13.1613 26.5471 15.9938 22.771L12.1464 19.8851C8.07767 25.3092 7.81203 32.974 11.9825 38.8054L15.8945 36.0076ZM26.1138 40.6785C22.2707 41.0496 18.3226 39.4027 15.8945 36.0076L11.9825 38.8054C15.4415 43.642 21.0804 45.9965 26.5762 45.4657L26.1138 40.6785Z" fill="#F9FCF8" mask="url(#path-6-outside-3_5_64)"/>
<path d="M45.0727 28.6092L47.3035 26.388C47.3036 26.3879 47.3038 26.3878 47.3039 26.3876C48.6032 25.0944 49.6345 23.5585 50.3384 21.8672C51.0423 20.1757 51.4047 18.3624 51.4047 16.5308C51.4047 14.6993 51.0423 12.8859 50.3384 11.1944C49.6346 9.50333 48.6035 7.9675 47.3043 6.67438C46.0054 5.38051 44.4637 4.35467 42.7677 3.65496C41.0717 2.95526 39.2542 2.59525 37.4189 2.59525C35.5837 2.59525 33.7662 2.95526 32.0702 3.65496C30.3743 4.35459 28.8328 5.3803 27.534 6.67398C27.5338 6.67411 27.5337 6.67425 27.5336 6.67438L26.9994 7.2062L26.4649 6.67398C23.8415 4.06193 20.2855 2.59637 16.5799 2.59637C12.8743 2.59637 9.31841 4.06193 6.69497 6.67398C4.07119 9.28638 2.59525 12.8318 2.59525 16.5308C2.59525 20.2298 4.07119 23.7752 6.69497 26.3876L8.92622 28.6092L25.3027 44.9146C26.241 45.8488 27.7579 45.8488 28.6961 44.9146L45.0727 28.6092Z" stroke="#BBC98D" stroke-width="4.80949" stroke-linecap="round" stroke-linejoin="round"/>
</g>
</svg>
