<svg width="32" height="32" viewBox="0 0 32 32" fill="none" xmlns="http://www.w3.org/2000/svg">
<path fill-rule="evenodd" clip-rule="evenodd" d="M16.0001 1.66667C12.1663 1.66667 9.0801 4.76919 9.0801 8.58667C9.0801 12.3245 12.0262 15.3679 15.7398 15.4928C15.7812 15.4942 15.8227 15.493 15.864 15.4892C15.9536 15.4811 16.0496 15.4819 16.1139 15.4884C16.1581 15.4928 16.2026 15.4943 16.247 15.4928C19.9614 15.3679 22.9045 12.3247 22.9201 8.59084L22.9201 8.58667C22.9201 4.76772 19.819 1.66667 16.0001 1.66667ZM11.0801 8.58667C11.0801 5.87082 13.2739 3.66667 16.0001 3.66667C18.7138 3.66667 20.919 5.87119 20.9201 8.58463C20.908 11.2308 18.8413 13.3746 16.2361 13.4917C16.0785 13.4803 15.9114 13.4808 15.7533 13.4918C13.1455 13.376 11.0801 11.2307 11.0801 8.58667Z" fill="#BBC98D"/>
<path fill-rule="evenodd" clip-rule="evenodd" d="M23.4487 18.5818C21.4226 17.2286 18.8009 16.5833 16.23 16.5833C13.6587 16.5833 11.0319 17.2287 8.99404 18.5799L8.99036 18.5823C7.1699 19.801 6.12665 21.5033 6.12665 23.3317C6.12665 25.1604 7.17026 26.8597 8.99174 28.0719C11.0239 29.4312 13.6484 30.08 16.22 30.08C18.7921 30.08 21.4171 29.4309 23.4494 28.0711C25.2699 26.8525 26.3133 25.1501 26.3133 23.3217C26.3133 21.4931 25.2699 19.7939 23.4487 18.5818ZM8.12665 23.3317C8.12665 22.3239 8.69623 21.1867 10.1011 20.2456C11.743 19.1576 13.9621 18.5833 16.23 18.5833C18.499 18.5833 20.7107 19.1581 22.3379 20.2449L22.3394 20.2459C23.744 21.1804 24.3133 22.3141 24.3133 23.3217C24.3133 24.3299 23.7432 25.4677 22.337 26.409C20.7027 27.5025 18.4878 28.08 16.22 28.08C13.9521 28.08 11.7371 27.5024 10.1027 26.4089L10.1006 26.4074C8.69599 25.473 8.12665 24.3393 8.12665 23.3317Z" fill="#BBC98D"/>
</svg>
