<svg width="240" height="240" viewBox="0 0 240 240" fill="none" xmlns="http://www.w3.org/2000/svg">
<path fill-rule="evenodd" clip-rule="evenodd" d="M120 220C175.23 220 220 175.23 220 120C220 64.77 175.23 20 120 20C64.77 20 20 64.77 20 120C20 175.23 64.77 220 120 220ZM83.97 155.53C84.5572 154.738 85.2948 154.07 86.1405 153.564C86.9862 153.057 87.9234 152.722 88.8987 152.578C89.8738 152.434 90.8679 152.484 91.8238 152.725C92.7798 152.965 93.679 153.392 94.47 153.98C101.75 159.38 110.54 162.5 120 162.5C129.46 162.5 138.25 159.37 145.53 153.98C146.319 153.366 147.222 152.916 148.187 152.657C149.151 152.397 150.158 152.333 151.148 152.468C152.138 152.603 153.092 152.934 153.952 153.442C154.812 153.951 155.562 154.626 156.158 155.428C156.753 156.23 157.183 157.143 157.42 158.114C157.658 159.084 157.7 160.092 157.543 161.079C157.385 162.066 157.033 163.011 156.505 163.86C155.977 164.708 155.285 165.443 154.47 166.02C144.517 173.461 132.427 177.488 120 177.5C107.573 177.488 95.4827 173.461 85.53 166.02C83.9322 164.836 82.8703 163.065 82.5778 161.098C82.2852 159.131 82.786 157.128 83.97 155.53ZM160 105C160 113.28 155.52 120 150 120C144.48 120 140 113.28 140 105C140 96.72 144.48 90 150 90C155.52 90 160 96.72 160 105ZM90 120C95.52 120 100 113.28 100 105C100 96.72 95.52 90 90 90C84.48 90 80 96.72 80 105C80 113.28 84.48 120 90 120Z" fill="#BBC98D"/>
</svg>
