<svg width="273" height="249" viewBox="0 0 273 249" fill="none" xmlns="http://www.w3.org/2000/svg">
<path opacity="0.63" d="M121.333 249V138.679C105.156 138.679 89.6097 135.855 74.6958 130.206C59.7819 124.558 46.6375 116.546 35.2625 106.171C23.8875 95.7958 15.1667 83.8069 9.1 70.2042C3.03333 56.6014 0 42.4222 0 27.6667V0H30.3333C46.2583 0 61.6778 2.82431 76.5917 8.47292C91.5056 14.1215 104.65 22.1333 116.025 32.5083C123.861 39.6556 130.37 47.4944 135.552 56.025C140.734 64.5556 144.715 73.6625 147.496 83.3458C148.76 81.7319 150.15 80.1757 151.667 78.6771C153.183 77.1785 154.826 75.6222 156.596 74.0083C167.971 63.6333 181.115 55.6215 196.029 49.9729C210.943 44.3243 226.489 41.5 242.667 41.5H273V69.1667C273 83.9222 269.903 98.1014 263.71 111.704C257.517 125.307 248.733 137.296 237.358 147.671C225.983 158.046 212.902 166 198.115 171.533C183.327 177.067 167.844 179.833 151.667 179.833V249H121.333ZM121.333 110.667C121.333 99.6 118.995 89.0521 114.319 79.0229C109.642 68.9938 103.007 60.0597 94.4125 52.2208C85.8181 44.3819 76.0229 38.3299 65.0271 34.0646C54.0312 29.7993 42.4667 27.6667 30.3333 27.6667C30.3333 38.7333 32.6083 49.3389 37.1583 59.4833C41.7083 69.6278 48.2806 78.6194 56.875 86.4583C65.4694 94.2972 75.3278 100.292 86.45 104.442C97.5722 108.592 109.2 110.667 121.333 110.667ZM151.667 152.167C163.8 152.167 175.365 150.092 186.36 145.942C197.356 141.792 207.151 135.797 215.746 127.958C224.34 120.119 230.976 111.128 235.652 100.983C240.328 90.8389 242.667 80.2333 242.667 69.1667C230.533 69.1667 218.906 71.2993 207.783 75.5646C196.661 79.8299 186.803 85.8819 178.208 93.7208C169.614 101.56 163.042 110.494 158.492 120.523C153.942 130.552 151.667 141.1 151.667 152.167Z" fill="#658C4A"/>
</svg>
