<svg width="220" height="215" viewBox="0 0 220 215" fill="none" xmlns="http://www.w3.org/2000/svg">
<path d="M156.667 115.417L113.437 73.2291C108.056 68.0208 103.498 62.2482 99.7656 55.9114C96.033 49.5746 94.1667 42.6735 94.1667 35.2083C94.1667 25.6596 97.5087 17.5433 104.193 10.8593C110.877 4.17527 118.993 0.833252 128.542 0.833252C134.097 0.833252 139.306 2.00513 144.167 4.34888C149.028 6.69263 153.194 9.86103 156.667 13.8541C160.139 9.86103 164.306 6.69263 169.167 4.34888C174.028 2.00513 179.236 0.833252 184.792 0.833252C194.34 0.833252 202.457 4.17527 209.141 10.8593C215.825 17.5433 219.167 25.6596 219.167 35.2083C219.167 42.6735 217.344 49.5746 213.698 55.9114C210.052 62.2482 205.538 68.0208 200.156 73.2291L156.667 115.417ZM156.667 86.2499L185.052 58.3853C188.351 55.0867 191.389 51.5711 194.167 47.8385C196.944 44.1058 198.333 39.8958 198.333 35.2083C198.333 31.3888 197.031 28.177 194.427 25.5728C191.823 22.9687 188.611 21.6666 184.792 21.6666C182.361 21.6666 180.061 22.144 177.891 23.0989C175.72 24.0537 173.854 25.486 172.292 27.3958L156.667 46.1458L141.042 27.3958C139.479 25.486 137.613 24.0537 135.443 23.0989C133.273 22.144 130.972 21.6666 128.542 21.6666C124.722 21.6666 121.51 22.9687 118.906 25.5728C116.302 28.177 115 31.3888 115 35.2083C115 39.8958 116.389 44.1058 119.167 47.8385C121.944 51.5711 124.983 55.0867 128.281 58.3853L156.667 86.2499ZM62.9167 172.708L135.312 192.5L197.292 173.229C196.424 171.667 195.165 170.321 193.516 169.193C191.866 168.064 190 167.5 187.917 167.5H135.312C130.625 167.5 126.892 167.326 124.115 166.979C121.337 166.632 118.472 165.937 115.521 164.896L91.3021 156.823L97.0312 136.51L118.125 143.542C121.076 144.41 124.549 145.104 128.542 145.625C132.535 146.146 138.437 146.493 146.25 146.667C146.25 144.757 145.686 142.934 144.557 141.198C143.429 139.462 142.083 138.333 140.521 137.812L79.5833 115.417H62.9167V172.708ZM0.416656 209.167V94.5833H79.5833C80.7986 94.5833 82.0139 94.7135 83.2292 94.9739C84.4444 95.2343 85.5729 95.5381 86.6146 95.8853L147.812 118.542C153.542 120.625 158.186 124.271 161.745 129.479C165.304 134.687 167.083 140.417 167.083 146.667H187.917C196.597 146.667 203.976 149.531 210.052 155.26C216.128 160.99 219.167 168.542 219.167 177.917V188.333L135.833 214.375L62.9167 194.062V209.167H0.416656ZM21.25 188.333H42.0833V115.417H21.25V188.333Z" fill="#BBC98D"/>
</svg>
